<svg preserveAspectRatio="none" viewBox="-2 -2 294 142" fill="none" xmlns="http://www.w3.org/2000/svg">
<mask id="path-1-inside-1_754:17774" fill="white">
<path fill-rule="evenodd" clip-rule="evenodd" d="M119.232 5.68785C117.571 2.21242 114.062 0 110.21 0H10C4.47715 0 0 4.47715 0 10V32.6565V128C0 133.523 4.47716 138 10 138H280C285.523 138 290 133.523 290 128V42.6565C290 37.1336 285.523 32.6565 280 32.6565H138.426C134.574 32.6565 131.064 30.4441 129.403 26.9686L119.232 5.68785Z"/>
</mask>
<path fill-rule="evenodd" clip-rule="evenodd" d="M119.232 5.68785C117.571 2.21242 114.062 0 110.21 0H10C4.47715 0 0 4.47715 0 10V32.6565V128C0 133.523 4.47716 138 10 138H280C285.523 138 290 133.523 290 128V42.6565C290 37.1336 285.523 32.6565 280 32.6565H138.426C134.574 32.6565 131.064 30.4441 129.403 26.9686L119.232 5.68785Z" fill="#221334"/>
<path d="M129.403 26.9686L128.501 27.3999L129.403 26.9686ZM119.232 5.68785L120.135 5.25663L119.232 5.68785ZM10 1H110.21V-1H10V1ZM1 32.6565V10H-1V32.6565H1ZM1 128V32.6565H-1V128H1ZM280 137H10V139H280V137ZM289 42.6565V128H291V42.6565H289ZM138.426 33.6565H280V31.6565H138.426V33.6565ZM118.33 6.11906L128.501 27.3999L130.306 26.5374L120.135 5.25663L118.33 6.11906ZM138.426 31.6565C134.959 31.6565 131.8 29.6653 130.306 26.5374L128.501 27.3999C130.328 31.2228 134.189 33.6565 138.426 33.6565V31.6565ZM280 139C286.075 139 291 134.075 291 128H289C289 132.971 284.971 137 280 137V139ZM-1 128C-1 134.075 3.92487 139 10 139V137C5.02944 137 1 132.971 1 128H-1ZM110.21 1C113.677 1 116.835 2.99118 118.33 6.11906L120.135 5.25663C118.308 1.43367 114.447 -1 110.21 -1V1ZM291 42.6565C291 36.5814 286.075 31.6565 280 31.6565V33.6565C284.971 33.6565 289 37.6859 289 42.6565H291ZM10 -1C3.92487 -1 -1 3.92487 -1 10H1C1 5.02944 5.02944 1 10 1V-1Z" fill="#00D7D7" mask="url(#path-1-inside-1_754:17774)"/>
</svg>
