<svg width="58" height="58" viewBox="0 0 58 58" fill="none" xmlns="http://www.w3.org/2000/svg">
<path fill-rule="evenodd" clip-rule="evenodd" d="M7.4359 0C3.32917 0 0 3.32916 0 7.4359V50.5641C0 54.6708 3.32916 58 7.4359 58H50.5641C54.6708 58 58 54.6708 58 50.5641V7.4359C58 3.32917 54.6708 0 50.5641 0H7.4359ZM27.7043 19.9552C31.3898 19.9552 34.3774 16.9676 34.3774 13.2821C34.3774 9.59671 31.3898 6.60907 27.7043 6.60907C24.0189 6.60907 21.0312 9.59671 21.0312 13.2821C21.0312 16.9676 24.0189 19.9552 27.7043 19.9552ZM50.7423 30.2188C50.7476 30.1104 50.7502 30.0013 50.7502 29.8916C50.7502 29.6446 50.7368 29.4008 50.7106 29.1608L44.8082 23.2581C44.5681 23.2319 44.3242 23.2185 44.0771 23.2185C43.9675 23.2185 43.8585 23.2212 43.7502 23.2264L50.7423 30.2188ZM50.5956 31.3261L42.6429 23.373C42.3702 23.4327 42.1038 23.5091 41.8447 23.6011L50.3675 32.1242C50.4595 31.8652 50.5359 31.5987 50.5956 31.3261ZM49.9853 32.9967L40.9723 23.9833C40.7509 24.0999 40.5369 24.2285 40.3311 24.3684L49.6002 33.6378C49.7401 33.4321 49.8687 33.218 49.9853 32.9967ZM49.0496 34.3419L39.627 24.919C39.4467 25.0804 39.2752 25.2516 39.1134 25.4316L48.5369 34.8555C48.7169 34.6937 48.8881 34.5222 49.0496 34.3419ZM47.8341 35.4073L38.5615 26.1344C38.4213 26.3398 38.2923 26.5535 38.1753 26.7745L47.194 35.7935C47.415 35.6766 47.6287 35.5475 47.8341 35.4073ZM46.3234 36.1772L37.7916 27.6451C37.6992 27.9037 37.6223 28.1696 37.562 28.4417L45.5267 36.4068C45.7989 36.3465 46.0648 36.2696 46.3234 36.1772ZM44.4215 36.5559L37.4128 29.5469C37.407 29.6611 37.4041 29.776 37.4041 29.8916C37.4041 30.1315 37.4167 30.3684 37.4414 30.6018L43.3667 36.5273C43.6001 36.552 43.8371 36.5647 44.0771 36.5647C44.1926 36.5647 44.3075 36.5617 44.4215 36.5559ZM41.7219 36.1371C39.931 35.4614 38.5071 34.0375 37.8315 32.2466L41.7219 36.1371ZM46.462 23.6573L50.3115 27.5069C49.6352 25.7398 48.2291 24.3337 46.462 23.6573Z" fill="#00D7D7"/>
</svg>
