<svg width="22" height="22" viewBox="0 0 22 22" fill="none" xmlns="http://www.w3.org/2000/svg">
<path opacity="0.6" d="M18.7 9.9H14.3V14.3H12.1V9.9H7.7V7.7H12.1V3.3H14.3V7.7H18.7V9.9ZM19.8 0H6.6C6.01652 0 5.45694 0.231785 5.04436 0.644365C4.63178 1.05695 4.4 1.61652 4.4 2.2V15.4C4.4 15.9835 4.63178 16.5431 5.04436 16.9556C5.45694 17.3682 6.01652 17.6 6.6 17.6H19.8C20.3835 17.6 20.9431 17.3682 21.3556 16.9556C21.7682 16.5431 22 15.9835 22 15.4V2.2C22 1.61652 21.7682 1.05695 21.3556 0.644365C20.9431 0.231785 20.3835 0 19.8 0ZM2.2 4.4H0V19.8C0 20.3835 0.231785 20.9431 0.644365 21.3556C1.05695 21.7682 1.61652 22 2.2 22H17.6V19.8H2.2V4.4Z" fill="#E5E5E5"/>
</svg>
