<svg width="40" height="40" viewBox="0 0 40 40" fill="none" xmlns="http://www.w3.org/2000/svg">
<g clip-path="url(#clip0)">
<path d="M39.4012 24.8435C36.7316 35.5567 25.8776 42.0771 15.1612 39.4035C4.44479 36.7299 -2.07261 25.8813 0.601191 15.1671C3.27499 4.45287 14.1236 -2.07053 24.8376 0.603468C35.5516 3.27747 42.075 14.1267 39.4012 24.8435Z" fill="#F7931A"/>
<path d="M28.8197 17.1506C29.2173 14.4892 27.1909 13.0584 24.4197 12.104L25.3197 8.49903L23.1245 7.95223L22.2477 11.4624C21.6713 11.3188 21.0789 11.1824 20.4901 11.0488L21.3701 7.51543L19.1771 6.96863L18.2797 10.5722L13.8533 9.47583L13.2693 11.82C13.2693 11.82 14.8977 12.1932 14.8633 12.2164C15.7521 12.4384 15.9133 13.0264 15.8861 13.4928L13.4233 23.3688C13.3145 23.6388 13.0389 24.0436 12.4177 23.8888C12.4397 23.9208 10.8225 23.4888 10.8225 23.4888L9.73291 26.0046L14.1529 27.1206L13.2445 30.7676L15.4365 31.3144L16.3365 27.7066C16.9365 27.869 17.5165 28.019 18.0849 28.1602L17.1885 31.7512L19.3833 32.298L20.2917 28.658C24.0343 29.366 26.8487 29.0804 28.0317 25.698C28.9861 22.973 27.9849 21.401 26.0157 20.3754C27.4497 20.0434 28.5297 19.1006 28.8179 17.152L28.8197 17.1506ZM23.8037 24.1824C23.1237 26.9074 18.5367 25.4348 17.0483 25.0648L18.2535 20.2338C19.7411 20.605 24.5113 21.3402 23.8045 24.182L23.8037 24.1824ZM24.4845 17.112C23.8657 19.592 20.0463 18.332 18.8067 18.0228L19.8979 13.64C21.1379 13.9496 25.1281 14.526 24.4829 17.1118" fill="white"/>
</g>
<defs>
<clipPath id="clip0">
<rect width="40" height="40" fill="white"/>
</clipPath>
</defs>
</svg>
