<svg width="35" height="35" viewBox="0 0 35 35"  xmlns="http://www.w3.org/2000/svg">
<path fill-rule="evenodd" clip-rule="evenodd" d="M34.7299 18.2266C34.7436 17.9445 34.7504 17.6607 34.7504 17.3752C34.7504 16.732 34.7155 16.097 34.6474 15.4719L19.2792 0.103126C18.6539 0.0349744 18.0187 0 17.3752 0C17.09 0 16.8063 0.00687347 16.5245 0.0204638L34.7299 18.2266ZM34.3481 21.1099L13.6412 0.402215C12.9312 0.557702 12.2374 0.756604 11.5628 0.995999L33.7542 23.1882C33.9936 22.5137 34.1926 21.8199 34.3481 21.1099ZM32.7589 25.4599L9.29115 1.9912C8.71475 2.29471 8.15748 2.62968 7.62163 2.9938L31.7563 27.1294C32.1204 26.5935 32.4554 26.0363 32.7589 25.4599ZM30.3226 28.9626L5.7883 4.42736C5.31878 4.84781 4.87227 5.29342 4.45088 5.76208L28.9879 30.3C29.4565 29.8786 29.9022 29.4321 30.3226 28.9626ZM27.1578 31.7369L3.01395 7.59205C2.6489 8.12689 2.31294 8.68318 2.00837 9.25863L25.4912 32.7424C26.0667 32.4378 26.623 32.1019 27.1578 31.7369ZM23.2243 33.7414L1.00927 11.5256C0.76863 12.1987 0.568344 12.8911 0.411329 13.5998L21.15 34.3393C21.8587 34.1823 22.551 33.982 23.2243 33.7414ZM18.2725 34.7277L0.022801 16.4773C0.00766176 16.7747 0 17.0741 0 17.3752C0 17.9997 0.0329429 18.6165 0.0971856 19.2239L15.5259 34.6532C16.1335 34.7175 16.7505 34.7504 17.3752 34.7504C17.6762 34.7504 17.9753 34.7428 18.2725 34.7277ZM11.2435 33.6375C6.57972 31.8782 2.87184 28.1702 1.11266 23.5064L11.2435 33.6375ZM23.5857 1.1428L33.6079 11.1654C31.8468 6.56476 28.1862 2.90402 23.5857 1.1428Z" fill="currentColor"/>
</svg>
