<svg width="23" height="23" viewBox="0 0 23 23" fill="none" xmlns="http://www.w3.org/2000/svg">
	<path fill-rule="evenodd" clip-rule="evenodd" d="M4 0C1.79086 0 0 1.79086 0 4V19C0 21.2091 1.79086 23 4 23H19C21.2091 23 23 21.2091 23 19V4C23 1.79086 21.2091 0 19 0H4ZM17.123 18.1902C17.2876 18.3548 17.5545 18.3548 17.7191 18.1902L18.1903 17.7191C18.3549 17.5545 18.3549 17.2876 18.1903 17.123L15.0822 14.0149H17.378C17.6108 14.0149 17.7995 13.8262 17.7995 13.5934V12.9226C17.7995 12.6898 17.6108 12.501 17.378 12.501H12.9226C12.6898 12.501 12.5011 12.6898 12.5011 12.9226V17.378C12.5011 17.6108 12.6898 17.7995 12.9226 17.7995H13.5934C13.8262 17.7995 14.0149 17.6108 14.0149 17.378V15.0821L17.123 18.1902ZM5.6888 10.5657C5.6888 10.7985 5.87751 10.9872 6.11031 10.9872H10.5657C10.7985 10.9872 10.9872 10.7985 10.9872 10.5657V6.11028C10.9872 5.87749 10.7985 5.68877 10.5657 5.68877H9.8949C9.66211 5.68877 9.47339 5.87749 9.47339 6.11028V8.40611L6.36531 5.29803C6.2007 5.13342 5.93381 5.13342 5.7692 5.29803L5.29805 5.76918C5.13344 5.93379 5.13344 6.20068 5.29805 6.36529L8.40614 9.47337H6.11031C5.87751 9.47337 5.6888 9.66209 5.6888 9.89488V10.5657Z" fill="currentColor" fill-opacity="0.5" />
</svg>
