<svg width="66" height="64" viewBox="0 0 66 64" fill="none" xmlns="http://www.w3.org/2000/svg">
<path fill-rule="evenodd" clip-rule="evenodd" d="M46.1443 0.0136693C45.0572 -0.0636003 43.9291 0.186261 42.925 0.774954L18.2036 15.2692H15.2085C12.1139 15.2692 9.55273 17.8662 9.55273 21.0087V51.5758C9.55273 54.7183 12.1139 57.3153 15.2085 57.3153H18.9717C19.2223 57.321 19.4715 57.2758 19.7048 57.1824C19.938 57.0889 20.1504 56.9491 20.3297 56.7711C20.5089 56.5931 20.6514 56.3806 20.7486 56.1459C20.8459 55.9112 20.896 55.6592 20.896 55.4046C20.896 55.15 20.8459 54.898 20.7486 54.6634C20.6514 54.4287 20.5089 54.2161 20.3297 54.0382C20.1504 53.8602 19.938 53.7203 19.7048 53.6269C19.4715 53.5334 19.2223 53.4882 18.9717 53.494H15.2085C14.1336 53.494 13.3159 52.6674 13.3159 51.5758V21.0087C13.3159 19.9171 14.1335 19.0906 15.2085 19.0906H60.3627C61.4377 19.0906 62.2516 19.9171 62.2516 21.0087V26.737H56.5996C53.5049 26.737 50.9548 29.3266 50.9548 32.4691V40.1118C50.9548 43.2542 53.5049 45.8438 56.5996 45.8438H62.2516V51.5758C62.2516 52.6674 61.4376 53.494 60.3627 53.494H26.498C26.2473 53.4882 25.9981 53.5334 25.7649 53.6269C25.5317 53.7203 25.3192 53.8602 25.1399 54.0382C24.9607 54.2161 24.8182 54.4287 24.721 54.6634C24.6238 54.898 24.5737 55.15 24.5737 55.4046C24.5737 55.6592 24.6238 55.9112 24.721 56.1459C24.8182 56.3806 24.9607 56.5931 25.1399 56.7711C25.3192 56.9491 25.5317 57.0889 25.7649 57.1824C25.9981 57.2758 26.2473 57.321 26.498 57.3153H60.3627C63.4574 57.3153 66.0001 54.7183 66.0001 51.5758V21.0087C66.0001 17.8662 63.4573 15.2692 60.3627 15.2692H57.6837L50.6351 2.87222C49.6687 1.17229 47.954 0.142139 46.1443 0.0136693ZM45.8797 3.82756C46.4782 3.87089 47.0426 4.19074 47.3791 4.7829L53.3399 15.2692H25.7262L44.8066 4.08132C45.1566 3.87623 45.5219 3.80156 45.8797 3.82756ZM56.5996 30.5584H62.2516V42.0224H56.5996C55.5246 42.0224 54.718 41.2034 54.718 40.1118V32.4691C54.718 31.3775 55.5246 30.5584 56.5996 30.5584Z" fill="#00D7D7"/>
<circle cx="14.3289" cy="49.0656" r="12.7937" fill="#29263F" stroke="#00D7D7" stroke-width="3.07049"/>
<path d="M12.5242 50.4114H15.7399C15.7399 49.0247 18.9555 48.1002 18.9555 45.1056C18.9555 42.4929 16.6644 41.0861 14.3732 41.0861C12.1424 41.0861 10.1929 42.2517 9.30859 44.3218L12.0821 45.9095C12.484 44.9649 13.1473 44.2213 14.2526 44.2213C15.2776 44.2213 15.7399 44.6836 15.7399 45.387C15.7399 47.1556 12.5242 48.06 12.5242 50.4114ZM14.1321 55.7172C15.1771 55.7172 16.0413 54.853 16.0413 53.8079C16.0413 52.7629 15.1771 51.8986 14.1321 51.8986C13.087 51.8986 12.2228 52.7629 12.2228 53.8079C12.2228 54.853 13.087 55.7172 14.1321 55.7172Z" fill="#00D7D7"/>
</svg>
