<svg width="16" height="20" viewBox="0 0 16 20" fill="none" xmlns="http://www.w3.org/2000/svg">
<path d="M6.45763 9.31805V9.69791H6.83749H11.016H11.7757V17.675C11.7757 17.9772 11.6556 18.2671 11.4419 18.4808C11.2282 18.6945 10.9383 18.8146 10.6361 18.8146H1.51944C0.887179 18.8146 0.379861 18.3021 0.379861 17.675V5.51945C0.379861 4.88595 0.885943 4.37987 1.51944 4.37987L4.55833 4.37986L6.45763 4.37986V5.13959V9.31805ZM11.7757 8.71568V9.54057L11.2846 9.04945L7.10609 4.87099L6.61497 4.37986L7.43987 4.37986L11.7757 8.71568Z" stroke="#00D7D7" stroke-width="0.759721"/>
<path d="M10.9276 0.731398L10.8163 0.620139H10.659H4.58121C3.52813 0.620139 2.68191 1.46636 2.68191 2.51944V14.675C2.68191 15.7192 3.52689 16.5743 4.58121 16.5743H13.6979C14.2016 16.5743 14.6847 16.3742 15.0409 16.018C15.3971 15.6618 15.5972 15.1787 15.5972 14.675V5.55833V5.40098L15.4859 5.28972L10.9276 0.731398ZM10.2791 3.05665L13.1607 5.93819H10.2791V3.05665Z" fill="#00D7D7" stroke="#29263F" stroke-width="0.759721"/>
</svg>
