<svg width="838" height="314" viewBox="0 0 838 314" fill="none" xmlns="http://www.w3.org/2000/svg">
<g filter="url(#filter0_f)">
<circle opacity="0.1" cx="134.5" cy="179.5" r="126.5" fill="#00D7D7"/>
<circle opacity="0.1" cx="330.5" cy="267.5" r="38.5" fill="#00D7D7"/>
<circle opacity="0.1" cx="684.5" cy="153.5" r="145.5" fill="#00D7D7"/>
<path opacity="0.1" fill-rule="evenodd" clip-rule="evenodd" d="M510.93 127.891C510.977 126.933 511 125.969 511 125C511 122.816 510.881 120.66 510.65 118.537L458.465 66.3502C456.342 66.1188 454.185 66 452 66C451.031 66 450.068 66.0233 449.111 66.0695L510.93 127.891ZM509.634 137.682L439.32 67.3658C436.91 67.8938 434.554 68.5692 432.263 69.3821L507.617 144.739C508.43 142.448 509.106 140.093 509.634 137.682ZM504.238 152.453L424.549 72.7614C422.592 73.792 420.7 74.9294 418.88 76.1659L500.833 158.122C502.069 156.302 503.207 154.41 504.238 152.453ZM495.965 164.347L412.655 81.0337C411.061 82.4614 409.544 83.9746 408.114 85.566L491.432 168.888C493.024 167.457 494.537 165.941 495.965 164.347ZM485.218 173.767L403.234 91.7799C401.995 93.596 400.854 95.485 399.82 97.439L479.559 177.181C481.513 176.147 483.402 175.006 485.218 173.767ZM471.861 180.574L396.427 105.137C395.61 107.423 394.93 109.774 394.397 112.18L464.818 182.604C467.224 182.071 469.575 181.391 471.861 180.574ZM455.047 183.923L393.077 121.951C393.026 122.961 393 123.977 393 125C393 127.12 393.112 129.215 393.33 131.277L445.72 183.67C447.784 183.888 449.879 184 452 184C453.022 184 454.038 183.974 455.047 183.923ZM431.179 180.221C415.342 174.247 402.752 161.656 396.778 145.819L431.179 180.221ZM473.088 69.8805L507.12 103.914C501.14 88.2916 488.71 75.861 473.088 69.8805Z" fill="url(#paint0_linear)"/>
<path opacity="0.1" fill-rule="evenodd" clip-rule="evenodd" d="M240.969 53.7986C240.989 53.3683 241 52.9354 241 52.5C241 51.519 240.947 50.5505 240.843 49.5972L217.404 26.1573C216.45 26.0533 215.481 26 214.5 26C214.065 26 213.632 26.0105 213.202 26.0312L240.969 53.7986ZM240.386 58.1961L208.805 26.6135C207.722 26.8506 206.664 27.154 205.635 27.5191L239.481 61.3658C239.846 60.337 240.149 59.2789 240.386 58.1961ZM237.963 64.8304L202.17 29.0369C201.291 29.4998 200.441 30.0107 199.624 30.566L236.433 67.3767C236.989 66.5594 237.5 65.7095 237.963 64.8304ZM234.247 70.1727L196.828 32.7524C196.112 33.3937 195.431 34.0733 194.788 34.7881L232.211 72.2124C232.926 71.5697 233.606 70.8888 234.247 70.1727ZM229.42 74.4038L192.597 37.5791C192.04 38.3948 191.528 39.2433 191.063 40.1209L226.878 75.9374C227.756 75.4729 228.604 74.9606 229.42 74.4038ZM223.421 77.461L189.539 43.5783C189.172 44.6051 188.867 45.6611 188.627 46.7419L220.257 78.3729C221.338 78.1334 222.394 77.828 223.421 77.461ZM215.868 78.9653L188.035 51.1306C188.012 51.5841 188 52.0407 188 52.5C188 53.4524 188.05 54.3931 188.148 55.3196L211.679 78.8516C212.606 78.9497 213.547 79 214.5 79C214.959 79 215.415 78.9883 215.868 78.9653ZM205.148 77.3026C198.035 74.6193 192.38 68.964 189.697 61.851L205.148 77.3026ZM223.972 27.7429L239.257 43.0291C236.572 36.0123 230.988 30.4291 223.972 27.7429Z" fill="url(#paint1_linear)"/>
</g>
<defs>
<filter id="filter0_f" x="0" y="0" width="838" height="314" filterUnits="userSpaceOnUse" color-interpolation-filters="sRGB">
<feFlood flood-opacity="0" result="BackgroundImageFix"/>
<feBlend mode="normal" in="SourceGraphic" in2="BackgroundImageFix" result="shape"/>
<feGaussianBlur stdDeviation="4" result="effect1_foregroundBlur"/>
</filter>
<linearGradient id="paint0_linear" x1="511" y1="175.16" x2="382.347" y2="156.704" gradientUnits="userSpaceOnUse">
<stop stop-color="#FF2A6D"/>
<stop offset="0.516647" stop-color="#A07EFF"/>
<stop offset="1" stop-color="#3DFFFF"/>
</linearGradient>
<linearGradient id="paint1_linear" x1="241" y1="75.0295" x2="183.215" y2="66.7399" gradientUnits="userSpaceOnUse">
<stop stop-color="#FF2A6D"/>
<stop offset="0.516647" stop-color="#A07EFF"/>
<stop offset="1" stop-color="#3DFFFF"/>
</linearGradient>
</defs>
</svg>
