<svg width="41" height="40" viewBox="0 0 41 40" fill="none" xmlns="http://www.w3.org/2000/svg">
<ellipse cx="20.129" cy="19.9614" rx="20.0208" ry="19.8758" fill="white"/>
<path d="M11.0271 19.9433C11.2675 19.4915 11.5429 19.0609 11.8042 18.6217C13.8766 15.1429 15.9511 11.6652 18.0249 8.18724C18.6862 7.07819 19.3481 5.96943 20.0088 4.85979C20.0429 4.80247 20.0941 4.75191 20.092 4.67725C20.1017 4.67725 20.1116 4.67725 20.1212 4.67725C20.1212 4.68812 20.1212 4.6987 20.1212 4.70958C20.1587 4.791 20.1692 4.87683 20.1692 4.96619C20.1686 8.49735 20.1689 12.0285 20.1683 15.5594C20.1683 15.6082 20.1689 15.6573 20.1622 15.7058C20.1599 15.724 20.1552 15.7416 20.1488 15.7587C20.1392 15.7828 20.1235 15.8028 20.104 15.8195C19.7099 16.0285 19.298 16.1999 18.8934 16.3868C18.2027 16.7061 17.5109 17.0229 16.8187 17.3395C16.1047 17.6661 15.3913 17.9944 14.6779 18.3219C13.9951 18.6352 13.3123 18.9486 12.6306 19.264C12.1643 19.4797 11.6968 19.6928 11.2297 19.9068C11.1686 19.935 11.1048 19.9918 11.0271 19.9433Z" fill="#8C8C8C"/>
<path d="M11.0279 19.9079C11.3312 19.8059 11.6133 19.6539 11.9032 19.5211C13.9907 18.5646 16.0759 17.6037 18.162 16.6442C18.7738 16.3629 19.3856 16.0825 19.9977 15.8021C20.0283 15.788 20.0609 15.7786 20.0926 15.7671C20.1444 15.8182 20.1333 15.8847 20.1333 15.947C20.1342 19.0181 20.1345 22.089 20.1325 25.1601C20.1325 25.2257 20.1595 25.3109 20.0617 25.3415C19.5166 25.019 18.9705 24.698 18.4265 24.3735C16.0046 22.927 13.5832 21.4799 11.1615 20.0328C11.108 20.0008 11.0538 19.9696 11 19.9382C11 19.9285 11 19.9185 11 19.9088C11.0093 19.9085 11.0186 19.9082 11.0279 19.9079Z" fill="#393939"/>
<path d="M20.1235 15.7764C20.1226 15.7079 20.1208 15.6394 20.1208 15.571C20.1211 11.9504 20.1214 8.32992 20.1217 4.70911C20.2079 4.78994 20.2512 4.89988 20.31 4.99835C23.2591 9.94103 26.2068 14.8849 29.1544 19.8285C29.1765 19.8658 29.1945 19.9055 29.2143 19.944C29.1363 19.9892 29.0726 19.934 29.0115 19.9058C28.5449 19.6912 28.0777 19.4778 27.6111 19.2632C26.8014 18.8905 25.9911 18.5186 25.1807 18.1471C24.4982 17.834 23.8159 17.5201 23.1337 17.2065C22.328 16.8364 21.5226 16.4651 20.7164 16.0965C20.5621 16.026 20.407 15.9572 20.2547 15.8828C20.2038 15.8581 20.1441 15.8408 20.1235 15.7764Z" fill="#343434"/>
<path d="M20.1237 15.7764C20.9852 16.1726 21.8471 16.5686 22.7086 16.9657C23.2974 17.2373 23.8851 17.5118 24.4745 17.7823C25.3759 18.1959 26.2791 18.6062 27.1806 19.0198C27.7656 19.2882 28.3489 19.5603 28.9336 19.8293C29.0256 19.8716 29.1208 19.9057 29.2148 19.9439C29.2337 20.0315 29.149 20.0257 29.1109 20.0486C27.7021 20.8943 26.2913 21.7361 24.8808 22.5789C23.3292 23.506 21.7781 24.4334 20.2258 25.3596C20.1941 25.3784 20.1659 25.4113 20.1222 25.4037C20.0951 25.3581 20.1085 25.3082 20.1085 25.2602C20.108 22.1465 20.108 19.0327 20.1085 15.919C20.1085 15.871 20.096 15.8211 20.1225 15.7755L20.1237 15.7764Z" fill="#141414"/>
<path d="M20.124 34.6783C19.9278 34.4823 19.7931 34.2395 19.635 34.0152C16.9817 30.2412 14.3312 26.4655 11.6802 22.6898C11.4674 22.387 11.2558 22.0834 11.0425 21.7786C11.0835 21.7442 11.1109 21.7847 11.1391 21.8015C12.8881 22.845 14.6369 23.8891 16.3856 24.9335C17.6305 25.6769 18.8748 26.4208 20.1194 27.1648C20.1886 27.2436 20.1674 27.3406 20.1677 27.4311C20.1691 29.268 20.1686 31.1046 20.1686 32.9414C20.1686 33.4347 20.1683 33.9282 20.1688 34.4214C20.1691 34.5102 20.1651 34.5975 20.124 34.6783Z" fill="#8C8C8C"/>
<path d="M20.1252 34.6786C20.1241 34.4537 20.1217 34.2286 20.1217 34.0037C20.1211 31.7241 20.1211 29.4446 20.1208 27.1654C22.4168 25.7947 24.7127 24.4243 27.0086 23.0537C27.736 22.6195 28.4634 22.185 29.1966 21.7471C29.2076 21.7938 29.1759 21.8147 29.1584 21.8394C26.175 26.0869 23.1913 30.3338 20.2073 34.5807C20.1831 34.6154 20.1526 34.646 20.1252 34.6786Z" fill="#3C3C3B"/>
</svg>
