<svg width="41" height="41" viewBox="0 0 41 41" fill="none" xmlns="http://www.w3.org/2000/svg">
<circle cx="20.5" cy="20.5" r="19.6368" fill="white" stroke="black" stroke-width="1.72632"/>
<circle cx="20.7158" cy="20.284" r="16.4" stroke="black" stroke-width="1.29474" stroke-linecap="round" stroke-linejoin="round" stroke-dasharray="0.01 1.96"/>
<path d="M14.034 26.8709C13.0978 26.7939 12.3348 26.6529 11.7449 26.4477C11.1678 26.2297 10.7382 26.0501 10.4561 25.9091L11.2832 23.6969C11.7321 23.9149 12.2643 24.1137 12.8798 24.2932C13.5082 24.4728 14.1686 24.5625 14.8611 24.5625C15.6434 24.5625 16.1756 24.4599 16.4577 24.2548C16.7527 24.0368 16.9002 23.7354 16.9002 23.3507C16.9002 23.107 16.8425 22.9018 16.727 22.7351C16.6116 22.5556 16.4449 22.3953 16.2269 22.2542C16.0089 22.1131 15.7332 21.9785 15.3997 21.8503C15.0663 21.7092 14.6816 21.5617 14.2456 21.4078C13.8224 21.2539 13.4056 21.0872 12.9952 20.9077C12.5977 20.7153 12.2322 20.4845 11.8988 20.2152C11.5782 19.9459 11.3153 19.6189 11.1101 19.2341C10.9177 18.8366 10.8216 18.3621 10.8216 17.8107C10.8216 17.3875 10.8793 16.9835 10.9947 16.5988C11.1229 16.2013 11.3153 15.8422 11.5718 15.5216C11.8282 15.201 12.1617 14.9317 12.572 14.7137C12.9824 14.4828 13.4697 14.3161 14.034 14.2135V12.136H16.4577V14.1366C17.1246 14.2007 17.6953 14.2969 18.1697 14.4251C18.6571 14.5534 19.0418 14.6816 19.3239 14.8098L18.7276 17.1182C18.3044 16.9386 17.8107 16.7847 17.2464 16.6565C16.695 16.5283 16.1115 16.4641 15.4959 16.4641C14.8804 16.4641 14.4379 16.5667 14.1686 16.7719C13.8993 16.9771 13.7647 17.2464 13.7647 17.5798C13.7647 17.785 13.8031 17.9646 13.8801 18.1184C13.9699 18.2595 14.1045 18.3878 14.2841 18.5032C14.4636 18.6186 14.6816 18.734 14.9381 18.8494C15.2074 18.952 15.528 19.0674 15.8999 19.1957C16.4641 19.4009 16.9835 19.6253 17.458 19.8689C17.9453 20.1126 18.3621 20.3947 18.7084 20.7153C19.0674 21.0231 19.3431 21.3886 19.5355 21.8118C19.7407 22.235 19.8433 22.7287 19.8433 23.293C19.8433 23.6777 19.7856 24.0624 19.6702 24.4471C19.5547 24.819 19.3624 25.1653 19.0931 25.4859C18.8238 25.8065 18.4711 26.0822 18.0351 26.313C17.6119 26.5439 17.0861 26.7106 16.4577 26.8132V29.16H14.034V26.8709ZM24.967 26.8709C24.0308 26.7939 23.2678 26.6529 22.6779 26.4477C22.1008 26.2297 21.6712 26.0501 21.3891 25.9091L22.2162 23.6969C22.6651 23.9149 23.1973 24.1137 23.8128 24.2932C24.4412 24.4728 25.1016 24.5625 25.7941 24.5625C26.5764 24.5625 27.1086 24.4599 27.3907 24.2548C27.6857 24.0368 27.8332 23.7354 27.8332 23.3507C27.8332 23.107 27.7755 22.9018 27.66 22.7351C27.5446 22.5556 27.3779 22.3953 27.1599 22.2542C26.9419 22.1131 26.6662 21.9785 26.3328 21.8503C25.9993 21.7092 25.6146 21.5617 25.1786 21.4078C24.7554 21.2539 24.3386 21.0872 23.9282 20.9077C23.5307 20.7153 23.1652 20.4845 22.8318 20.2152C22.5112 19.9459 22.2483 19.6189 22.0431 19.2341C21.8507 18.8366 21.7546 18.3621 21.7546 17.8107C21.7546 17.3875 21.8123 16.9835 21.9277 16.5988C22.0559 16.2013 22.2483 15.8422 22.5048 15.5216C22.7613 15.201 23.0947 14.9317 23.5051 14.7137C23.9154 14.4828 24.4027 14.3161 24.967 14.2135V12.136H27.3907V14.1366C28.0576 14.2007 28.6283 14.2969 29.1028 14.4251C29.5901 14.5534 29.9748 14.6816 30.2569 14.8098L29.6606 17.1182C29.2374 16.9386 28.7437 16.7847 28.1794 16.6565C27.628 16.5283 27.0445 16.4641 26.4289 16.4641C25.8134 16.4641 25.371 16.5667 25.1016 16.7719C24.8323 16.9771 24.6977 17.2464 24.6977 17.5798C24.6977 17.785 24.7362 17.9646 24.8131 18.1184C24.9029 18.2595 25.0375 18.3878 25.2171 18.5032C25.3966 18.6186 25.6146 18.734 25.8711 18.8494C26.1404 18.952 26.461 19.0674 26.8329 19.1957C27.3972 19.4009 27.9165 19.6253 28.391 19.8689C28.8783 20.1126 29.2951 20.3947 29.6414 20.7153C30.0004 21.0231 30.2762 21.3886 30.4685 21.8118C30.6737 22.235 30.7763 22.7287 30.7763 23.293C30.7763 23.6777 30.7186 24.0624 30.6032 24.4471C30.4878 24.819 30.2954 25.1653 30.0261 25.4859C29.7568 25.8065 29.4041 26.0822 28.9681 26.313C28.5449 26.5439 28.0191 26.7106 27.3907 26.8132V29.16H24.967V26.8709Z" fill="black"/>
</svg>
