<svg width="12" height="12" viewBox="0 0 12 12" fill="none" xmlns="http://www.w3.org/2000/svg">
<circle cx="6" cy="6" r="5.5" stroke="currentColor"/>
<path d="M5.64619 7.496C5.60352 7.496 5.56619 7.48267 5.53419 7.456C5.50219 7.424 5.48619 7.384 5.48619 7.336C5.48619 7.29333 5.48619 7.25067 5.48619 7.208C5.48619 7.16533 5.48619 7.12267 5.48619 7.08C5.50752 6.872 5.56352 6.688 5.65419 6.528C5.75019 6.36267 5.85952 6.21333 5.98219 6.08C6.11019 5.94133 6.23552 5.81067 6.35819 5.688C6.48619 5.56533 6.59285 5.44533 6.67819 5.328C6.76885 5.20533 6.82219 5.08 6.83819 4.952C6.85419 4.79733 6.82219 4.66667 6.74219 4.56C6.66752 4.45333 6.56352 4.37333 6.43019 4.32C6.30219 4.26133 6.16619 4.232 6.02219 4.232C5.77152 4.232 5.56619 4.29333 5.40619 4.416C5.24619 4.53867 5.13685 4.736 5.07819 5.008C5.06219 5.072 5.03552 5.12 4.99819 5.152C4.96085 5.17867 4.91019 5.192 4.84619 5.192H4.16619C4.11819 5.192 4.07552 5.176 4.03819 5.144C4.00619 5.10667 3.99019 5.05867 3.99019 5C3.99552 4.78667 4.04352 4.58133 4.13419 4.384C4.23019 4.18133 4.36619 4 4.54219 3.84C4.72352 3.68 4.94219 3.55467 5.19819 3.464C5.45419 3.368 5.74752 3.32 6.07819 3.32C6.44085 3.32 6.74485 3.368 6.99019 3.464C7.24085 3.55467 7.43819 3.67467 7.58219 3.824C7.73152 3.97333 7.83819 4.136 7.90219 4.312C7.96619 4.48267 7.99552 4.65067 7.99019 4.816C7.97952 5.01867 7.93419 5.2 7.85419 5.36C7.77419 5.52 7.67552 5.66933 7.55819 5.808C7.44085 5.94133 7.32085 6.07467 7.19819 6.208C7.07552 6.336 6.96619 6.46667 6.87019 6.6C6.77952 6.73333 6.71819 6.87467 6.68619 7.024C6.67552 7.072 6.66752 7.12 6.66219 7.168C6.65685 7.21067 6.65152 7.25333 6.64619 7.296C6.62485 7.36 6.59819 7.41067 6.56619 7.448C6.53419 7.48 6.48885 7.496 6.43019 7.496H5.64619ZM5.62219 9C5.56885 9 5.52352 8.98133 5.48619 8.944C5.44885 8.90667 5.43019 8.86133 5.43019 8.808V8.112C5.43019 8.05333 5.44885 8.00533 5.48619 7.968C5.52352 7.93067 5.56885 7.912 5.62219 7.912H6.39819C6.45685 7.912 6.50485 7.93067 6.54219 7.968C6.57952 8.00533 6.59819 8.05333 6.59819 8.112V8.808C6.59819 8.86133 6.57952 8.90667 6.54219 8.944C6.50485 8.98133 6.45685 9 6.39819 9H5.62219Z" fill="currentColor"/>
</svg>
