<svg width="133" height="24" viewBox="0 0 133 24" fill="none" xmlns="http://www.w3.org/2000/svg">
<path d="M1.42519 23C1.2135 23 1.03357 22.9259 0.885382 22.7777C0.737198 22.6295 0.663107 22.4496 0.663107 22.2379V1.56631C0.663107 1.33345 0.726614 1.14293 0.853628 0.994749C1.00181 0.846564 1.19233 0.772472 1.42519 0.772472H4.21951C4.45237 0.772472 4.64289 0.846564 4.79108 0.994749C4.93926 1.14293 5.01335 1.33345 5.01335 1.56631V8.99666L12.1897 1.34404C12.4649 0.962994 12.8777 0.772472 13.4281 0.772472H16.5717C16.741 0.772472 16.8892 0.83598 17.0162 0.962995C17.1644 1.09001 17.2385 1.24878 17.2385 1.4393C17.2385 1.58748 17.1962 1.7145 17.1115 1.82034L8.37923 11.4099L17.7148 21.9204C17.8206 22.0474 17.8736 22.185 17.8736 22.3332C17.8736 22.5237 17.7995 22.6825 17.6513 22.8095C17.5243 22.9365 17.3761 23 17.2067 23H13.9361C13.4069 23 12.9941 22.8095 12.6977 22.4284L5.01335 14.0137V22.2379C5.01335 22.4708 4.93926 22.6613 4.79108 22.8095C4.64289 22.9365 4.45237 23 4.21951 23H1.42519ZM31.2959 23.3175C28.4169 23.3175 26.173 22.5872 24.5641 21.1265C22.9553 19.6659 22.1085 17.496 22.0239 14.617C22.0027 14.0031 21.9921 13.1035 21.9921 11.918C21.9921 10.7114 22.0027 9.80108 22.0239 9.18718C22.1085 6.37169 22.9765 4.21245 24.6277 2.70944C26.2788 1.20644 28.5016 0.454937 31.2959 0.454937C34.0902 0.454937 36.313 1.20644 37.9642 2.70944C39.6365 4.21245 40.515 6.37169 40.5997 9.18718C40.6421 10.415 40.6632 11.3253 40.6632 11.918C40.6632 12.4896 40.6421 13.3892 40.5997 14.617C40.4939 17.496 39.6365 19.6659 38.0277 21.1265C36.4188 22.5872 34.1749 23.3175 31.2959 23.3175ZM31.2959 19.6659C32.7142 19.6659 33.8468 19.2425 34.6935 18.3957C35.5403 17.5278 35.9954 16.2153 36.059 14.4583C36.1013 13.1881 36.1225 12.3308 36.1225 11.8862C36.1225 11.3993 36.1013 10.542 36.059 9.31419C35.9954 7.55716 35.5403 6.25526 34.6935 5.4085C33.8468 4.54057 32.7142 4.1066 31.2959 4.1066C29.8988 4.1066 28.7768 4.54057 27.93 5.4085C27.0833 6.25526 26.6281 7.55716 26.5646 9.31419C26.5435 9.9281 26.5329 10.7854 26.5329 11.8862C26.5329 12.9659 26.5435 13.8232 26.5646 14.4583C26.6281 16.2153 27.0727 17.5278 27.8983 18.3957C28.745 19.2425 29.8776 19.6659 31.2959 19.6659ZM48.7703 23C48.5586 23 48.3787 22.9259 48.2305 22.7777C48.0823 22.6295 48.0082 22.4496 48.0082 22.2379V1.56631C48.0082 1.33345 48.0717 1.14293 48.1988 0.994749C48.3469 0.846564 48.5375 0.772472 48.7703 0.772472H51.2153C51.4694 0.772472 51.6599 0.825395 51.7869 0.93124C51.9139 1.01592 52.0304 1.13235 52.1362 1.28053L61.2812 15.5061V1.56631C61.2812 1.33345 61.3448 1.14293 61.4718 0.994749C61.6199 0.846564 61.8105 0.772472 62.0433 0.772472H64.7106C64.9435 0.772472 65.134 0.846564 65.2822 0.994749C65.4304 1.14293 65.5045 1.33345 65.5045 1.56631V22.2062C65.5045 22.439 65.4304 22.6295 65.2822 22.7777C65.134 22.9259 64.9541 23 64.7424 23H62.2656C61.9057 23 61.5988 22.8306 61.3448 22.4919L52.2315 8.58386V22.2379C52.2315 22.4708 52.1574 22.6613 52.0092 22.8095C51.861 22.9365 51.6705 23 51.4376 23H48.7703ZM82.1761 23.3175C79.2971 23.3175 77.0532 22.5872 75.4443 21.1265C73.8355 19.6659 72.9887 17.496 72.9041 14.617C72.8829 14.0031 72.8723 13.1035 72.8723 11.918C72.8723 10.7114 72.8829 9.80108 72.9041 9.18718C72.9887 6.37169 73.8567 4.21245 75.5079 2.70944C77.159 1.20644 79.3818 0.454937 82.1761 0.454937C84.9704 0.454937 87.1932 1.20644 88.8444 2.70944C90.5167 4.21245 91.3952 6.37169 91.4799 9.18718C91.5223 10.415 91.5434 11.3253 91.5434 11.918C91.5434 12.4896 91.5223 13.3892 91.4799 14.617C91.3741 17.496 90.5167 19.6659 88.9079 21.1265C87.299 22.5872 85.0551 23.3175 82.1761 23.3175ZM82.1761 19.6659C83.5944 19.6659 84.727 19.2425 85.5737 18.3957C86.4205 17.5278 86.8756 16.2153 86.9392 14.4583C86.9815 13.1881 87.0027 12.3308 87.0027 11.8862C87.0027 11.3993 86.9815 10.542 86.9392 9.31419C86.8756 7.55716 86.4205 6.25526 85.5737 5.4085C84.727 4.54057 83.5944 4.1066 82.1761 4.1066C80.779 4.1066 79.657 4.54057 78.8102 5.4085C77.9635 6.25526 77.5083 7.55716 77.4448 9.31419C77.4237 9.9281 77.4131 10.7854 77.4131 11.8862C77.4131 12.9659 77.4237 13.8232 77.4448 14.4583C77.5083 16.2153 77.9529 17.5278 78.7785 18.3957C79.6252 19.2425 80.7578 19.6659 82.1761 19.6659ZM99.6823 23C99.4494 23 99.2589 22.9365 99.1107 22.8095C98.9625 22.6613 98.8884 22.4708 98.8884 22.2379V1.56631C98.8884 1.33345 98.9625 1.14293 99.1107 0.994749C99.2589 0.846564 99.4494 0.772472 99.6823 0.772472H102.191C102.635 0.772472 102.953 0.973579 103.143 1.37579L109.272 12.8071L115.464 1.37579C115.676 0.973579 115.993 0.772472 116.416 0.772472H118.893C119.126 0.772472 119.317 0.846564 119.465 0.994749C119.613 1.14293 119.687 1.33345 119.687 1.56631V22.2379C119.687 22.4708 119.613 22.6613 119.465 22.8095C119.317 22.9365 119.126 23 118.893 23H116.226C116.014 23 115.834 22.9259 115.686 22.7777C115.538 22.6295 115.464 22.4496 115.464 22.2379V8.4886L111.018 16.9668C110.743 17.4325 110.383 17.6654 109.939 17.6654H108.637C108.192 17.6654 107.832 17.4325 107.557 16.9668L103.112 8.4886V22.2379C103.112 22.4496 103.038 22.6295 102.889 22.7777C102.762 22.9259 102.582 23 102.35 23H99.6823ZM128.564 23C128.352 23 128.172 22.9259 128.024 22.7777C127.876 22.6295 127.802 22.4496 127.802 22.2379V1.53456C127.802 1.3017 127.876 1.12176 128.024 0.994749C128.172 0.846564 128.352 0.772472 128.564 0.772472H131.549C131.781 0.772472 131.961 0.846564 132.088 0.994749C132.237 1.12176 132.311 1.3017 132.311 1.53456V22.2379C132.311 22.4496 132.237 22.6295 132.088 22.7777C131.961 22.9259 131.781 23 131.549 23H128.564Z" fill="#00D7D7"/>
</svg>
