<svg width="58" height="58" viewBox="0 0 58 58" fill="none" xmlns="http://www.w3.org/2000/svg">
<path d="M0.557692 7.4359C0.557692 3.63717 3.63717 0.557692 7.4359 0.557692H50.5641C54.3628 0.557692 57.4423 3.63717 57.4423 7.4359V50.5641C57.4423 54.3628 54.3628 57.4423 50.5641 57.4423H7.4359C3.63717 57.4423 0.557692 54.3628 0.557692 50.5641V7.4359Z" stroke="#3DFFFF" stroke-width="1.11538"/>
<path fill-rule="evenodd" clip-rule="evenodd" d="M34.3774 13.2821C34.3774 16.9676 31.3898 19.9552 27.7043 19.9552C24.0189 19.9552 21.0312 16.9676 21.0312 13.2821C21.0312 9.59671 24.0189 6.60907 27.7043 6.60907C31.3898 6.60907 34.3774 9.59671 34.3774 13.2821ZM50.7502 29.8916C50.7502 30.0173 50.5998 30.0762 50.5109 29.9873L43.9815 23.4576C43.8926 23.3688 43.9515 23.2185 44.0771 23.2185C44.5512 23.2185 44.9909 23.4408 45.3261 23.776L50.1929 28.643C50.528 28.9781 50.7502 29.4177 50.7502 29.8916ZM42.4341 23.4223C42.5629 23.3897 42.6997 23.4298 42.7937 23.5238L50.4449 31.1753C50.5388 31.2692 50.579 31.406 50.5464 31.5348C50.476 31.8126 50.1336 31.8903 49.931 31.6877L42.2813 24.0377C42.0787 23.835 42.1564 23.4926 42.4341 23.4223ZM40.724 24.1209C40.8696 24.0361 41.0535 24.0645 41.1727 24.1837L49.7849 32.7963C49.9041 32.9154 49.9325 33.0993 49.8477 33.245C49.7262 33.4535 49.4421 33.4797 49.2715 33.3091L40.6598 24.6971C40.4892 24.5265 40.5154 24.2423 40.724 24.1209ZM39.3635 25.1681C39.5075 25.0244 39.7396 25.0315 39.8834 25.1754L48.7932 34.0855C48.937 34.2293 48.9442 34.4614 48.8005 34.6054C48.6565 34.7496 48.4241 34.7426 48.28 34.5986L39.3703 25.6885C39.2262 25.5445 39.2193 25.312 39.3635 25.1681ZM38.3137 26.5259C38.4354 26.318 38.7192 26.2921 38.8896 26.4625L47.506 35.0793C47.6764 35.2497 47.6505 35.5334 47.4425 35.6551C47.2968 35.7404 47.1126 35.7121 46.9932 35.5927L38.3761 26.9753C38.2568 26.8559 38.2285 26.6716 38.3137 26.5259ZM37.6119 28.2326C37.6828 27.9554 38.0247 27.8782 38.2271 28.0806L45.8879 35.7417C46.0902 35.944 46.0131 36.286 45.7359 36.3569C45.6069 36.3899 45.4697 36.3498 45.3755 36.2556L37.7132 28.5929C37.619 28.4988 37.5789 28.3616 37.6119 28.2326ZM37.4041 29.8916C37.4041 29.7588 37.5627 29.6969 37.6566 29.7907L44.1779 36.3123C44.2717 36.4061 44.2098 36.5647 44.0771 36.5647C43.6166 36.5647 43.189 36.3496 42.8634 36.024L37.9445 31.1049C37.619 30.7794 37.4041 30.3519 37.4041 29.8916ZM39.7767 34.1918C40.2281 34.6433 39.8753 35.1149 39.4182 34.6691C39.3781 34.63 39.3385 34.5904 39.2994 34.5503C38.8537 34.0932 39.3253 33.7404 39.7767 34.1918ZM48.738 25.116C48.2901 24.6788 47.9442 25.1395 48.3868 25.5821C48.8293 26.0247 49.2901 25.6788 48.8529 25.2309C48.8151 25.1921 48.7768 25.1538 48.738 25.116Z" fill="#3DFFFF"/>
</svg>
