<svg width="28" height="28" viewBox="0 0 28 28" fill="none" xmlns="http://www.w3.org/2000/svg">
<rect width="27.4793" height="27.4793" rx="3.1405" fill="#00D7D7"/>
<path d="M19.9948 18.7717C20.0031 18.9271 20.0644 19.075 20.1684 19.1907C20.4893 19.5368 20.8418 19.8533 21.1697 20.1932C21.2516 20.278 21.2864 20.4081 21.3669 20.5631H15.3002C15.3825 20.4089 15.4232 20.2681 15.5133 20.1754C15.8423 19.8365 16.1942 19.52 16.5226 19.181C16.608 19.0927 16.688 18.9527 16.6885 18.836C16.6986 16.6087 16.6963 14.3811 16.6959 12.1537C16.6896 12.1038 16.68 12.0543 16.6672 12.0056C16.6086 12.1375 16.5699 12.2162 16.5378 12.2977C15.4883 14.962 14.4393 17.6264 13.3905 20.291C13.3398 20.42 13.3225 20.5613 13.1141 20.5542C12.9188 20.5477 12.8041 20.5136 12.712 20.3107C11.4956 17.6343 10.2719 14.9613 9.04089 12.2916C8.99924 12.2008 8.95682 12.1103 8.88529 11.956C8.87063 12.0834 8.85774 12.1438 8.85764 12.204C8.85409 14.0602 8.84394 15.9163 8.86038 17.7723C8.8622 17.9788 8.97656 18.215 9.10751 18.3841C9.57198 18.9842 10.0697 19.5584 10.5457 20.1497C10.6218 20.244 10.651 20.376 10.7226 20.537H6.11108C6.1708 20.3886 6.19388 20.2501 6.27049 20.1543C6.70244 19.6142 7.13622 19.0746 7.59187 18.5546C7.85792 18.251 7.96461 17.931 7.96111 17.5225C7.943 15.4049 7.94863 13.287 7.95705 11.1693C7.95832 10.8561 7.88044 10.6049 7.66838 10.3662C7.2484 9.8936 6.85125 9.40026 6.45582 8.90662C6.38241 8.81499 6.36105 8.68166 6.29855 8.52413H6.64314C7.91718 8.52413 9.19127 8.53067 10.4652 8.51799C10.6889 8.51576 10.7819 8.59328 10.8706 8.78927C11.9048 11.0765 12.9454 13.361 13.9921 15.6426C14.0338 15.7339 14.0773 15.8246 14.1443 15.9676C14.1967 15.8471 14.233 15.7688 14.2652 15.6885C15.1901 13.3825 16.1133 11.0758 17.0347 8.76836C17.1083 8.58324 17.1937 8.51642 17.3986 8.5183C18.6219 8.52961 19.8453 8.52388 21.0687 8.52388H21.3975C21.3179 8.68196 21.2863 8.81159 21.2059 8.89297C20.868 9.23487 20.5058 9.55307 20.1743 9.90086C20.0682 10.0148 20.0049 10.1621 19.9952 10.3175C19.9848 13.1357 19.9847 15.9537 19.9948 18.7717Z" fill="#221334"/>
</svg>
