<svg width="53" height="50" viewBox="0 0 53 50" fill="none" xmlns="http://www.w3.org/2000/svg">
<path fill-rule="evenodd" clip-rule="evenodd" d="M0.396978 5.14706C0.396978 2.30442 2.7014 0 5.54404 0H42.3087C45.1514 0 47.4558 2.30442 47.4558 5.14706C47.4558 7.9897 45.1514 10.2941 42.3087 10.2941H5.54404C2.70139 10.2941 0.396978 7.9897 0.396978 5.14706ZM47.4558 18.3824C47.4558 15.5397 45.1514 13.2353 42.3087 13.2353H5.54403C2.70139 13.2353 0.396973 15.5397 0.396973 18.3824C0.396973 21.225 2.70139 23.5294 5.54403 23.5294H42.3087C45.1514 23.5294 47.4558 21.225 47.4558 18.3824ZM5.54403 36.7647C2.70139 36.7647 0.396973 34.4603 0.396973 31.6176C0.396973 28.775 2.70139 26.4706 5.54403 26.4706H42.3087C45.1514 26.4706 47.4558 28.775 47.4558 31.6176C47.4558 34.4603 45.1514 36.7647 42.3087 36.7647H25.0293V44.3314C25.7666 44.6299 26.3553 45.2186 26.6538 45.9559H40.8381C41.4473 45.9559 41.9411 46.4497 41.9411 47.0588C41.9411 47.668 41.4473 48.1618 40.8381 48.1618H26.6538C26.2175 49.2396 25.1607 50 23.9264 50C22.6921 50 21.6353 49.2396 21.199 48.1618H7.01462C6.40548 48.1618 5.91168 47.668 5.91168 47.0588C5.91168 46.4497 6.40548 45.9559 7.01462 45.9559H21.199C21.4974 45.2186 22.0862 44.6299 22.8234 44.3314V36.7647H5.54403ZM5.48748 8.14495C7.14307 8.14495 8.4852 6.80283 8.4852 5.14723C8.4852 3.49164 7.14307 2.14951 5.48748 2.14951C3.83188 2.14951 2.48976 3.49164 2.48976 5.14723C2.48976 6.80283 3.83188 8.14495 5.48748 8.14495ZM39.311 18.3825C39.311 20.0381 40.6531 21.3802 42.3087 21.3802C43.9643 21.3802 45.3065 20.0381 45.3065 18.3825C45.3065 16.7269 43.9643 15.3848 42.3087 15.3848C40.6531 15.3848 39.311 16.7269 39.311 18.3825ZM5.48748 28.6198C7.14307 28.6198 8.4852 29.9619 8.4852 31.6175C8.4852 33.2731 7.14307 34.6152 5.48748 34.6152C3.83188 34.6152 2.48976 33.2731 2.48976 31.6175C2.48976 29.9619 3.83188 28.6198 5.48748 28.6198Z" fill="#00D7D7"/>
<circle cx="40.8379" cy="30.8824" r="10.9533" fill="#221334" stroke="#FF7283" stroke-width="1.62272"/>
<path d="M40.4988 32.8221H41.9884L42.3828 27.8274L42.4558 25.6513H40.0314L40.1045 27.8274L40.4988 32.8221ZM41.2436 36.7069C41.9738 36.7069 42.5288 36.1811 42.5288 35.4217C42.5288 34.6477 41.9738 34.1219 41.2436 34.1219C40.5134 34.1219 39.9584 34.6477 39.9584 35.4217C39.9584 36.1811 40.4988 36.7069 41.2436 36.7069Z" fill="#FF7283"/>
</svg>
