<svg width="63" height="62" viewBox="0 0 63 62" fill="none" xmlns="http://www.w3.org/2000/svg">
<path d="M26.425 0.00367197C20.1125 -0.104849 13.7594 2.19186 8.8663 6.91954C-0.919893 16.375 -1.18883 32.0032 8.26661 41.7893C17.722 51.5755 33.3503 51.8445 43.1365 42.3891C52.9227 32.9337 53.1916 17.3055 43.7361 7.51929C39.0084 2.62617 32.7376 0.112193 26.425 0.00367197ZM26.3596 3.82288C31.6939 3.91477 36.9922 6.03888 40.9874 10.1738C48.9777 18.4436 48.7578 31.6562 40.488 39.6465C32.2182 47.6368 18.9995 47.4107 11.0092 39.1409C3.01888 30.871 3.25106 17.6566 11.5209 9.66629C15.6558 5.67116 21.0252 3.73116 26.3596 3.82288ZM26.0668 12.3925C27.0637 12.4123 28.0536 12.808 28.7951 13.5754C29.9317 14.7517 30.1662 16.4754 29.5258 17.8858L33.961 21.9773C34.9662 21.3598 36.1899 21.2569 37.2787 21.6354L39.1433 18.8846L40.8768 20.0615L38.9959 22.8429C40.2469 24.3861 40.1524 26.6744 38.6992 28.0785C37.1642 29.5617 34.6868 29.5131 33.2037 27.9783C32.0285 26.7621 31.8268 24.9637 32.5508 23.5287L28.1688 19.4864C27.3791 20.0178 26.4402 20.2177 25.5286 20.1086L22.5342 26.9468C22.6557 27.045 22.7813 27.1348 22.8924 27.2497C24.3753 28.7845 24.3331 31.2682 22.7982 32.7513C21.2633 34.2344 18.7858 34.1859 17.3028 32.6511C16.4664 31.7855 16.1331 30.6236 16.261 29.5073L12.3395 27.7655L13.1909 25.8559L17.0531 27.569C17.1622 27.4296 17.2661 27.2863 17.3969 27.1597C18.2791 26.3075 19.4708 25.9744 20.6082 26.1221L23.5923 19.3045C23.4603 19.1999 23.3255 19.1013 23.2055 18.9769C21.7225 17.442 21.7647 14.9584 23.2997 13.4753C24.0672 12.7338 25.07 12.374 26.0668 12.3925ZM47.3752 40.7517C46.5438 41.8551 45.6176 42.9081 44.5937 43.8974C43.5676 44.8888 42.4795 45.7784 41.3456 46.5726L55.0237 60.7276C56.6247 62.3845 59.294 62.4288 60.951 60.8278C62.608 59.2268 62.6522 56.5596 61.0513 54.9026L47.3752 40.7517Z" fill="#00D7D7"/>
<mask id="path-2-outside-1_652:54036" maskUnits="userSpaceOnUse" x="-0.109863" y="35.3457" width="21" height="26" fill="black">
<rect fill="white" x="-0.109863" y="35.3457" width="21" height="26"/>
<path fill-rule="evenodd" clip-rule="evenodd" d="M16.65 59.8955H4.35011C2.99151 59.8955 1.89014 58.7941 1.89014 57.4355V39.8057C1.89014 38.4471 2.9915 37.3457 4.35011 37.3457H13.1711C13.8235 37.3457 14.4492 37.6049 14.9105 38.0662L18.3894 41.5451C18.8508 42.0065 19.11 42.6322 19.11 43.2846V57.4355C19.11 58.7941 18.0086 59.8955 16.65 59.8955ZM5.1701 41.4458H4.35011L4.35011 43.0858H5.1701L10.09 43.0858L10.91 43.0858L10.91 41.4458H10.09L5.1701 41.4458ZM5.1701 44.7261H4.35011L4.35011 46.366H5.1701L15.83 46.366H16.65V44.7261L15.83 44.7261L5.1701 44.7261ZM4.35011 48.8256H5.1701L12.55 48.8256H13.37V50.4656H12.55L5.1701 50.4656H4.35011L4.35011 48.8256ZM5.1701 52.1056H4.35011L4.35011 53.7456H5.1701H15.83H16.65V52.1056H15.83L5.1701 52.1056ZM4.35011 56.2057H5.1701H10.91H11.73V57.8457H10.91L5.1701 57.8457H4.35011L4.35011 56.2057Z"/>
</mask>
<path fill-rule="evenodd" clip-rule="evenodd" d="M16.65 59.8955H4.35011C2.99151 59.8955 1.89014 58.7941 1.89014 57.4355V39.8057C1.89014 38.4471 2.9915 37.3457 4.35011 37.3457H13.1711C13.8235 37.3457 14.4492 37.6049 14.9105 38.0662L18.3894 41.5451C18.8508 42.0065 19.11 42.6322 19.11 43.2846V57.4355C19.11 58.7941 18.0086 59.8955 16.65 59.8955ZM5.1701 41.4458H4.35011L4.35011 43.0858H5.1701L10.09 43.0858L10.91 43.0858L10.91 41.4458H10.09L5.1701 41.4458ZM5.1701 44.7261H4.35011L4.35011 46.366H5.1701L15.83 46.366H16.65V44.7261L15.83 44.7261L5.1701 44.7261ZM4.35011 48.8256H5.1701L12.55 48.8256H13.37V50.4656H12.55L5.1701 50.4656H4.35011L4.35011 48.8256ZM5.1701 52.1056H4.35011L4.35011 53.7456H5.1701H15.83H16.65V52.1056H15.83L5.1701 52.1056ZM4.35011 56.2057H5.1701H10.91H11.73V57.8457H10.91L5.1701 57.8457H4.35011L4.35011 56.2057Z" fill="#00D7D7"/>
<path d="M14.9105 38.0662L14.0713 38.9054V38.9054L14.9105 38.0662ZM18.3894 41.5451L17.5502 42.3844V42.3844L18.3894 41.5451ZM4.35011 41.4458V40.259H3.16328L3.16328 41.4458H4.35011ZM5.1701 41.4458V42.6326V42.6326V41.4458ZM4.35011 43.0858H3.16328L3.16328 44.2726H4.35011V43.0858ZM5.1701 43.0858V44.2726V44.2726V43.0858ZM10.09 43.0858V44.2726L10.0901 44.2726L10.09 43.0858ZM10.91 43.0858L10.91 44.2726L12.0969 44.2726V43.0858L10.91 43.0858ZM10.91 41.4458L12.0969 41.4458L12.0969 40.259H10.91V41.4458ZM10.09 41.4458V40.259V41.4458ZM4.35011 44.7261V43.5392H3.16328L3.16328 44.7261H4.35011ZM5.1701 44.7261V45.9129V44.7261ZM4.35011 46.366H3.16328L3.16328 47.5529H4.35011V46.366ZM5.1701 46.366V47.5529V46.366ZM15.83 46.366V45.1792V45.1792V46.366ZM16.65 46.366V47.5529H17.8368V46.366H16.65ZM16.65 44.7261H17.8368V43.5392L16.65 43.5392L16.65 44.7261ZM15.83 44.7261V45.9129H15.83L15.83 44.7261ZM5.1701 48.8256V50.0125H5.1701L5.1701 48.8256ZM4.35011 48.8256V47.6388H3.16328L3.16328 48.8256H4.35011ZM12.55 48.8256V47.6388V48.8256ZM13.37 48.8256H14.5568V47.6388H13.37V48.8256ZM13.37 50.4656V51.6524H14.5568V50.4656H13.37ZM12.55 50.4656V49.2788V50.4656ZM5.1701 50.4656V51.6524H5.1701L5.1701 50.4656ZM4.35011 50.4656H3.16328L3.16328 51.6524H4.35011V50.4656ZM4.35011 52.1056V50.9188H3.16328L3.16328 52.1056H4.35011ZM5.1701 52.1056V53.2924V52.1056ZM4.35011 53.7456H3.16328L3.16328 54.9324H4.35011V53.7456ZM16.65 53.7456V54.9324H17.8368V53.7456H16.65ZM16.65 52.1056H17.8368V50.9188H16.65V52.1056ZM15.83 52.1056V50.9188V52.1056ZM4.35011 56.2057V55.0189H3.16328L3.16328 56.2057H4.35011ZM11.73 56.2057H12.9169V55.0189H11.73V56.2057ZM11.73 57.8457V59.0326H12.9169V57.8457H11.73ZM10.91 57.8457V56.6589V57.8457ZM5.1701 57.8457V59.0326H5.1701L5.1701 57.8457ZM4.35011 57.8457H3.16328L3.16328 59.0326H4.35011V57.8457ZM4.35011 61.0823H16.65V58.7086H4.35011V61.0823ZM0.703307 57.4355C0.703307 59.4496 2.33604 61.0823 4.35011 61.0823V58.7086C3.64697 58.7086 3.07697 58.1386 3.07697 57.4355H0.703307ZM0.703307 39.8057V57.4355H3.07697V39.8057H0.703307ZM4.35011 36.1589C2.33604 36.1589 0.703307 37.7916 0.703307 39.8057H3.07697C3.07697 39.1025 3.64697 38.5325 4.35011 38.5325V36.1589ZM13.1711 36.1589H4.35011V38.5325H13.1711V36.1589ZM15.7497 37.227C15.0658 36.5431 14.1382 36.1589 13.1711 36.1589V38.5325C13.5087 38.5325 13.8325 38.6667 14.0713 38.9054L15.7497 37.227ZM19.2287 40.7059L15.7497 37.227L14.0713 38.9054L17.5502 42.3844L19.2287 40.7059ZM20.2968 43.2846C20.2968 42.3174 19.9126 41.3898 19.2287 40.7059L17.5502 42.3844C17.789 42.6231 17.9231 42.9469 17.9231 43.2846H20.2968ZM20.2968 57.4355V43.2846H17.9231V57.4355H20.2968ZM16.65 61.0823C18.6641 61.0823 20.2968 59.4496 20.2968 57.4355H17.9231C17.9231 58.1386 17.3531 58.7086 16.65 58.7086V61.0823ZM4.35011 42.6326H5.1701V40.259H4.35011V42.6326ZM5.53694 43.0858L5.53694 41.4458H3.16328L3.16328 43.0858H5.53694ZM5.1701 41.899H4.35011V44.2726H5.1701V41.899ZM10.09 41.899L5.1701 41.899V44.2726L10.09 44.2726V41.899ZM10.91 41.899L10.09 41.899L10.0901 44.2726L10.91 44.2726L10.91 41.899ZM9.72321 41.4458L9.72321 43.0858L12.0969 43.0858L12.0969 41.4458L9.72321 41.4458ZM10.09 42.6326H10.91V40.259H10.09V42.6326ZM5.1701 42.6326L10.09 42.6326V40.259L5.1701 40.259V42.6326ZM4.35011 45.9129H5.1701V43.5392H4.35011V45.9129ZM5.53694 46.366L5.53694 44.7261H3.16328L3.16328 46.366H5.53694ZM5.1701 45.1792H4.35011V47.5529H5.1701V45.1792ZM15.83 45.1792L5.1701 45.1792V47.5529L15.83 47.5529V45.1792ZM16.65 45.1792H15.83V47.5529H16.65V45.1792ZM15.4631 44.7261V46.366H17.8368V44.7261H15.4631ZM15.83 45.9129L16.65 45.9129L16.65 43.5392L15.83 43.5392L15.83 45.9129ZM5.1701 45.9129L15.83 45.9129V43.5392L5.1701 43.5392V45.9129ZM5.1701 47.6388H4.35011V50.0125H5.1701V47.6388ZM12.55 47.6388L5.1701 47.6388L5.1701 50.0125L12.55 50.0125V47.6388ZM13.37 47.6388H12.55V50.0125H13.37V47.6388ZM14.5568 50.4656V48.8256H12.1832V50.4656H14.5568ZM12.55 51.6524H13.37V49.2788H12.55V51.6524ZM5.1701 51.6524L12.55 51.6524V49.2788L5.1701 49.2788L5.1701 51.6524ZM4.35011 51.6524H5.1701V49.2788H4.35011V51.6524ZM3.16328 48.8256L3.16328 50.4656H5.53694L5.53694 48.8256H3.16328ZM4.35011 53.2924H5.1701V50.9188H4.35011V53.2924ZM5.53694 53.7456L5.53694 52.1056H3.16328L3.16328 53.7456H5.53694ZM5.1701 52.5587H4.35011V54.9324H5.1701V52.5587ZM15.83 52.5587H5.1701V54.9324H15.83V52.5587ZM16.65 52.5587H15.83V54.9324H16.65V52.5587ZM15.4631 52.1056V53.7456H17.8368V52.1056H15.4631ZM15.83 53.2924H16.65V50.9188H15.83V53.2924ZM5.1701 53.2924L15.83 53.2924V50.9188L5.1701 50.9188V53.2924ZM5.1701 55.0189H4.35011V57.3926H5.1701V55.0189ZM10.91 55.0189H5.1701V57.3926H10.91V55.0189ZM11.73 55.0189H10.91V57.3926H11.73V55.0189ZM12.9169 57.8457V56.2057H10.5432V57.8457H12.9169ZM10.91 59.0326H11.73V56.6589H10.91V59.0326ZM5.1701 59.0326L10.91 59.0326V56.6589L5.1701 56.6589L5.1701 59.0326ZM4.35011 59.0326H5.1701V56.6589H4.35011V59.0326ZM3.16328 56.2057L3.16328 57.8457H5.53694L5.53694 56.2057H3.16328Z" fill="#29263F" mask="url(#path-2-outside-1_652:54036)"/>
</svg>
