<svg width="20" height="20" viewBox="0 0 20 20" fill="none" xmlns="http://www.w3.org/2000/svg">
<path fill-rule="evenodd" clip-rule="evenodd" d="M19 10C19 14.9706 14.9706 19 10 19C5.02944 19 1 14.9706 1 10C1 5.02944 5.02944 1 10 1C14.9706 1 19 5.02944 19 10ZM20 10C20 15.5228 15.5228 20 10 20C4.47715 20 0 15.5228 0 10C0 4.47715 4.47715 0 10 0C15.5228 0 20 4.47715 20 10ZM12.2011 5.83664C11.9504 5.36559 11.5292 5.03898 11.0528 4.89209C10.5762 4.74584 10.0446 4.78053 9.57358 5.03119C8.63144 5.53246 8.26887 6.72035 8.7701 7.66245C8.80344 7.72519 8.84396 7.78094 8.88458 7.83683C8.89337 7.84892 8.90216 7.86102 8.91088 7.87319L6.53707 10.7387C6.01073 10.511 5.39206 10.5068 4.85061 10.7949C4.78393 10.8304 4.72456 10.874 4.66532 10.9176C4.65321 10.9265 4.6411 10.9354 4.62894 10.9442L3.00876 9.58857L2.33636 10.3891L3.98113 11.7666C3.76579 12.2856 3.7659 12.8899 4.04858 13.4212C4.54985 14.3633 5.73392 14.728 6.67604 14.2267C7.61818 13.7255 7.98074 12.5375 7.47952 11.5954C7.45108 11.5421 7.41666 11.4944 7.38216 11.4467C7.37108 11.4314 7.36 11.416 7.34911 11.4005L9.73068 8.52653C10.1538 8.70461 10.6327 8.73789 11.0854 8.59133L12.6345 11.1381C12.0887 11.728 11.9378 12.6202 12.3351 13.3667C12.8363 14.3088 14.0204 14.6735 14.9625 14.1722C15.8545 13.6976 16.2153 12.6108 15.8267 11.6967L17.1141 10.6191L16.4431 9.81452L15.1678 10.8797C14.6966 10.5477 14.0943 10.4285 13.5261 10.5868L11.9582 8.00906C12.4604 7.41943 12.5852 6.55863 12.2011 5.83664Z" fill="currentColor"/>
</svg>
