<svg width="20" height="20" viewBox="0 0 20 20" fill="none" xmlns="http://www.w3.org/2000/svg">
<path fill-rule="evenodd" clip-rule="evenodd" d="M19 10C19 10.5111 18.9574 11.0122 18.8756 11.5L14.1048 11.5L10.352 4.99999L6.02189 7.49999L8.30493 11.5L1.12444 11.5C1.0426 11.0122 1 10.5111 1 10C1 5.02944 5.02944 1 10 1C14.9706 1 19 5.02944 19 10ZM2.20404 14.5C1.8435 13.8767 1.55555 13.2062 1.35177 12.5L18.6482 12.5C18.4444 13.2062 18.1565 13.8767 17.796 14.5L2.20404 14.5ZM2.87555 15.5C4.52155 17.629 7.10067 19 10 19C12.8993 19 15.4784 17.629 17.1245 15.5L2.87555 15.5ZM20 10C20 15.5228 15.5228 20 10 20C4.47715 20 0 15.5228 0 10C0 4.47715 4.47715 0 10 0C15.5228 0 20 4.47715 20 10Z" fill="currentColor"/>
</svg>
