<svg width="14" height="14" viewBox="0 0 14 14" fill="none" xmlns="http://www.w3.org/2000/svg">
  <path
    d="M13.872 11.2472L9.62473 6.99991L13.872 2.75266C13.9534 2.67028 13.999 2.55915 13.999 2.44335C13.999 2.32755 13.9534 2.21642 13.872 2.13404L11.8656 0.127664C11.825 0.0869481 11.7768 0.0546416 11.7238 0.0325977C11.6707 0.0105539 11.6138 -0.000793457 11.5563 -0.000793457C11.4988 -0.000793457 11.4419 0.0105539 11.3888 0.0325977C11.3358 0.0546416 11.2875 0.0869481 11.247 0.127664L6.99973 4.37491L2.75248 0.127664C2.67044 0.0456455 2.55918 -0.000429966 2.44317 -0.000429966C2.32716 -0.000429966 2.2159 0.0456455 2.13386 0.127664L0.127481 2.13404C0.086765 2.1746 0.0544585 2.22281 0.0324146 2.27589C0.0103708 2.32897 -0.000976562 2.38588 -0.000976562 2.44335C-0.000976562 2.50083 0.0103708 2.55774 0.0324146 2.61081C0.0544585 2.66389 0.086765 2.7121 0.127481 2.75266L4.37473 6.99991L0.127481 11.2472C0.0454624 11.3292 -0.000613071 11.4405 -0.000613071 11.5565C-0.000613071 11.6725 0.0454624 11.7837 0.127481 11.8658L2.13386 13.8722C2.17442 13.9129 2.22263 13.9452 2.27571 13.9672C2.32878 13.9893 2.38569 14.0006 2.44317 14.0006C2.50064 14.0006 2.55755 13.9893 2.61063 13.9672C2.66371 13.9452 2.71192 13.9129 2.75248 13.8722L6.99973 9.62491L11.247 13.8722C11.329 13.9542 11.4403 14.0003 11.5563 14.0003C11.6723 14.0003 11.7836 13.9542 11.8656 13.8722L13.872 11.8658C13.9127 11.8252 13.945 11.777 13.967 11.7239C13.9891 11.6709 14.0004 11.614 14.0004 11.5565C14.0004 11.499 13.9891 11.4421 13.967 11.389C13.945 11.3359 13.9127 11.2877 13.872 11.2472Z"
    fill="#FF007A" />
</svg>