<svg width="28" height="28" viewBox="0 0 28 28" fill="none" xmlns="http://www.w3.org/2000/svg">
<rect width="27.4793" height="27.4793" rx="3.1405" fill="#00D7D7"/>
<circle cx="14.5249" cy="13.7397" r="12.1694" fill="#252B48"/>
<path fill-rule="evenodd" clip-rule="evenodd" d="M5.12707 4.79444C2.75108 7.27585 1.56271 10.2577 1.57036 13.9338C1.56075 17.3386 2.88682 20.4262 5.45247 22.9544C7.62471 25.1442 10.5371 26.4427 13.6178 26.5949C17.5873 26.8236 21.0102 25.5222 23.7922 22.6583C26.0011 20.435 27.2884 17.4592 27.3961 14.327C27.5689 10.4773 26.2548 7.15873 23.5146 4.45583C21.3406 2.26094 18.4232 0.96024 15.3376 0.810227C11.3449 0.583334 7.9028 1.89529 5.12707 4.79444ZM20.7729 8.8631C20.8201 8.94382 20.8478 9.03454 20.8536 9.12791C20.8693 9.34838 20.8459 9.56989 20.7844 9.78217C20.5667 10.8119 20.3489 11.8415 20.1309 12.8711C20.1238 12.8934 20.1145 12.9148 20.1029 12.9351C20.0443 13.1126 20.0172 13.2963 19.99 13.48C19.9707 13.6112 19.9513 13.7423 19.9205 13.8713C19.8499 14.1669 19.7853 14.4639 19.7207 14.7608C19.6931 14.8874 19.6656 15.014 19.6376 15.1405C19.5846 15.2815 19.565 15.4289 19.5453 15.5764C19.5312 15.6823 19.5171 15.7883 19.4906 15.8921C19.4504 16.0498 19.4185 16.2094 19.3865 16.369C19.3439 16.5819 19.3012 16.7948 19.2392 17.0032C19.121 17.5895 19.0015 18.1751 18.8808 18.7601C18.8443 18.9369 18.8058 19.1133 18.7673 19.2896C18.7445 19.3937 18.7218 19.4978 18.6995 19.6019C18.6981 19.6087 18.6966 19.6155 18.6952 19.6223C18.6904 19.6448 18.6856 19.6673 18.6798 19.6895C18.5099 20.3365 18.0417 20.5139 17.4984 20.1234C16.9902 19.7579 16.487 19.3856 15.9838 19.0134C15.7888 18.8692 15.5939 18.7249 15.3987 18.5811C15.3905 18.5728 15.3837 18.5632 15.3786 18.5528C15.0703 18.3274 14.7617 18.1028 14.4525 17.8788C14.4201 17.8555 14.3855 17.8347 14.351 17.814C14.3347 17.8042 14.3184 17.7944 14.3024 17.7844C14.1429 17.7411 14.006 17.6386 13.9196 17.4977C13.917 17.4973 13.9144 17.497 13.9118 17.4967C13.9083 17.4963 13.9049 17.4959 13.9013 17.4952C13.8474 17.4907 13.7965 17.469 13.7559 17.4333C13.5417 17.2706 13.3247 17.1114 13.1077 16.9523C12.8779 16.7837 12.6481 16.6151 12.4214 16.4422C12.3863 16.4193 12.3581 16.3872 12.3399 16.3494C12.3815 16.2418 14.5228 14.3041 16.2182 12.77C17.2181 11.8652 18.0629 11.1007 18.2304 10.9348C18.239 10.9263 18.2492 10.9178 18.2597 10.9091C18.3022 10.8738 18.3496 10.8343 18.3124 10.7764C18.2786 10.7235 18.2093 10.7376 18.1492 10.7499C18.1415 10.7514 18.1341 10.753 18.1268 10.7543C18.0219 10.7816 17.9233 10.829 17.8364 10.8937C16.3348 11.8418 14.8332 12.7891 13.3316 13.7357C12.4641 14.2827 11.5965 14.8295 10.7285 15.376C10.6945 15.4052 10.653 15.4244 10.6087 15.4314C10.5644 15.4384 10.519 15.433 10.4776 15.4157C9.56234 15.134 8.64731 14.8514 7.73253 14.5678C7.54222 14.5148 7.35486 14.4517 7.17123 14.3789C6.76459 14.2033 6.73621 13.9159 7.09494 13.6556C7.32246 13.4904 7.58368 13.3972 7.84431 13.3041C7.92238 13.2762 8.0004 13.2484 8.07745 13.2186C12.0103 11.7011 15.9433 10.1841 19.8766 8.66782L19.8799 8.66657C19.9347 8.64536 19.9896 8.62409 20.0457 8.60686C20.1332 8.57361 20.2272 8.56138 20.3202 8.57117C20.4133 8.58095 20.5027 8.61247 20.5814 8.66318C20.66 8.71389 20.7256 8.78237 20.7729 8.8631Z" fill="#00D7D7"/>
<path d="M13.9031 17.4694L14.3015 17.7847C13.7685 18.2981 13.2353 18.8113 12.7022 19.3243C12.6377 19.4028 12.5577 19.467 12.4673 19.5132C12.3769 19.5593 12.2779 19.5863 12.1766 19.5925C12.1115 19.4277 12.1022 19.2461 12.15 19.0755C12.187 18.8211 12.1734 18.5662 12.203 18.3118C12.2551 17.8643 12.244 17.4095 12.2915 16.9604C12.3129 16.7567 12.2804 16.5461 12.3556 16.3481C12.8361 16.7013 13.3162 17.0544 13.7959 17.4072C13.8304 17.43 13.8662 17.4508 13.9031 17.4694V17.4694Z" fill="#8C8C8C"/>
<path d="M13.3279 15.4497L13.4028 15.377C13.4216 15.4459 13.3987 15.473 13.3279 15.4497Z" fill="#F4F9FC"/>
</svg>
