<svg width="22" height="29" viewBox="0 0 22 29" fill="none" xmlns="http://www.w3.org/2000/svg">
<path d="M1.57143 25.7778C1.57143 26.6324 1.90255 27.452 2.49195 28.0562C3.08135 28.6605 3.88075 29 4.71429 29H17.2857C18.1193 29 18.9187 28.6605 19.5081 28.0562C20.0975 27.452 20.4286 26.6324 20.4286 25.7778V6.44444H1.57143V25.7778ZM5.43714 14.3067L7.65286 12.035L11 15.4506L14.3314 12.035L16.5471 14.3067L13.2157 17.7222L16.5471 21.1378L14.3314 23.4094L11 19.9939L7.66857 23.4094L5.45286 21.1378L8.78429 17.7222L5.43714 14.3067ZM16.5 1.61111L14.9286 0H7.07143L5.5 1.61111H0V4.83333H22V1.61111H16.5Z" fill="currentColor" fill-opacity="0.2"/>
</svg>
