<svg width="28" height="28" viewBox="0 0 28 28" fill="none" xmlns="http://www.w3.org/2000/svg">
<rect width="27.4793" height="27.4793" rx="3.1405" fill="#00D7D7"/>
<path d="M20.5609 10.1472C20.3002 10.3418 20.2688 10.5527 20.269 10.8318C20.2722 14.6129 17.9114 18.2085 14.5014 19.6274C11.6501 20.8138 8.16976 20.5647 5.59692 18.9333C6.5347 18.9474 7.37181 18.8996 8.18209 18.6573C8.99145 18.4242 9.74936 18.0399 10.4158 17.5249C8.65681 17.1353 7.79154 16.4824 7.36496 15.2191C7.82497 15.1559 8.30192 15.3003 8.74427 15.0963C7.00886 14.4291 6.07362 13.25 6.15556 11.8062C6.60867 11.9885 7.05863 12.1608 7.60519 12.1795C6.15003 10.9427 5.78383 9.48659 6.59593 7.69455C6.99432 8.16884 7.43355 8.60726 7.90858 9.00476C9.49027 10.3029 11.3034 11.024 13.3413 11.2028C13.5719 11.2231 13.5632 11.1564 13.5419 10.961C13.3486 9.19091 14.2855 7.72113 15.9042 7.23627C16.0835 7.18254 16.272 7.15951 16.4562 7.12227C16.7232 7.16601 16.9956 7.16512 17.2623 7.11963C17.9681 7.18047 18.6321 7.47966 19.1453 7.96801C19.3072 8.12051 19.4415 8.13787 19.6466 8.08794C20.2512 7.94081 20.8145 7.69176 21.4468 7.38522C21.1999 8.15958 20.7398 8.67118 20.0999 9.12774C20.7505 9.14707 21.2749 8.90182 21.889 8.71314C21.5379 9.26846 21.0877 9.75455 20.5609 10.1472Z" fill="url(#paint0_linear_753:14379)"/>
<path d="M20.5609 10.1472C20.3002 10.3418 20.2688 10.5527 20.269 10.8318C20.2722 14.6129 17.9114 18.2085 14.5014 19.6274C11.6501 20.8138 8.16976 20.5647 5.59692 18.9333C6.5347 18.9474 7.37181 18.8996 8.18209 18.6573C8.99145 18.4242 9.74936 18.0399 10.4158 17.5249C8.65681 17.1353 7.79154 16.4824 7.36496 15.2191C7.82497 15.1559 8.30192 15.3003 8.74427 15.0963C7.00886 14.4291 6.07362 13.25 6.15556 11.8062C6.60867 11.9885 7.05863 12.1608 7.60519 12.1795C6.15003 10.9427 5.78383 9.48659 6.59593 7.69455C6.99432 8.16884 7.43355 8.60726 7.90858 9.00476C9.49027 10.3029 11.3034 11.024 13.3413 11.2028C13.5719 11.2231 13.5632 11.1564 13.5419 10.961C13.3486 9.19091 14.2855 7.72113 15.9042 7.23627C16.0835 7.18254 16.272 7.15951 16.4562 7.12227C16.7232 7.16601 16.9956 7.16512 17.2623 7.11963C17.9681 7.18047 18.6321 7.47966 19.1453 7.96801C19.3072 8.12051 19.4415 8.13787 19.6466 8.08794C20.2512 7.94081 20.8145 7.69176 21.4468 7.38522C21.1999 8.15958 20.7398 8.67118 20.0999 9.12774C20.7505 9.14707 21.2749 8.90182 21.889 8.71314C21.5379 9.26846 21.0877 9.75455 20.5609 10.1472Z" fill="#221334"/>
<defs>
<linearGradient id="paint0_linear_753:14379" x1="-11.616" y1="21.0976" x2="33.4321" y2="1.61988" gradientUnits="userSpaceOnUse">
<stop offset="0.1075" stop-color="#C65CFF"/>
<stop offset="0.185" stop-color="#BA6BFF"/>
<stop offset="0.333" stop-color="#9991FF"/>
<stop offset="0.5283" stop-color="#66CCFF"/>
<stop offset="0.8107" stop-color="#42F0DB"/>
<stop offset="0.9726" stop-color="#33FFCC"/>
</linearGradient>
</defs>
</svg>
