<svg width="1920" height="1524" viewBox="0 0 1920 1524" fill="none" xmlns="http://www.w3.org/2000/svg">
<path opacity="0.5" d="M891.255 1326.41C850.267 1291.78 807.559 1256 756.145 1238.15C697.788 1217.88 633.262 1219.64 572.441 1221.13C454.775 1224.01 336.34 1197.83 222.262 1171.09C116.116 1146.21 9.73611 1116.46 -89.8113 1071.36C-91.63 1073.67 -92.5332 1074.78 -94.6406 1076.91C4.0282 1121.57 108.313 1151.51 213.55 1176.25C329.754 1203.58 450.904 1230.89 570.826 1227.84C631.548 1226.3 695.969 1224.43 754.271 1244.52C805.427 1262.14 847.945 1297.61 888.748 1331.96C922.799 1360.63 958.103 1387.69 996.117 1410.95C1039.32 1437.37 1084.82 1459.98 1129.81 1483.13C1135.59 1486.53 1141.36 1489.91 1147.14 1493.3C1148.5 1490.91 1149.19 1489.72 1150.55 1487.33C1145.64 1484.8 1143.18 1483.53 1138.27 1481C1091.87 1457.16 1044.95 1433.88 1000.37 1406.71C961.698 1383.13 925.822 1355.61 891.255 1326.41Z" fill="#3DFFFF"/>
<path opacity="0.5" d="M1028.55 1124C981.685 1086.91 934.498 1048.77 877.363 1028.82C802.516 1002.69 720.596 1003.47 642.399 1000.5C602.462 998.981 560.872 998.164 521.789 989.028C472.433 977.489 425.314 954.879 380.83 931.132C323.512 900.534 268.866 864.812 217.224 825.403C162.572 783.691 111.066 737.585 64.708 686.779C21.7604 639.715 -15.1659 587.625 -57.8186 540.217C-61.4314 540.923 -63.2562 541.267 -66.9365 541.937C-25.4328 589.401 10.3323 641.441 53.1508 687.756C100.817 739.311 153.737 786.013 209.827 828.205C262.734 868.007 318.676 904.036 377.298 934.849C422.451 958.578 470.166 981.065 520.081 992.702C558.501 1001.66 599.206 1002.77 638.461 1004.4C716.639 1007.66 798.546 1006.96 873.431 1032.95C930.805 1052.87 978.14 1091.04 1025.23 1128.2C1043.57 1142.67 1061.99 1157.21 1080.85 1170.82C1113.53 1194.42 1148.46 1215.22 1183.25 1235.87C1206.92 1249.92 1230.6 1264.05 1253.67 1279.03C1306.86 1313.54 1360.9 1347.13 1414.9 1380.45C1442.86 1397.69 1471.5 1412.83 1501.01 1427.34C1504.13 1426.01 1505.71 1425.35 1508.89 1424.04C1477.69 1409.91 1447.4 1394.85 1418.28 1376.8C1352.61 1336.09 1287 1295.29 1221.51 1254.28C1175.59 1225.53 1127.64 1198.21 1083.98 1166.62C1065.2 1153.05 1046.84 1138.47 1028.55 1124Z" fill="#3DFFFF"/>
<path opacity="0.5" d="M904.318 1298.49C860.485 1261.7 815.037 1222.42 760.231 1202.99C699.625 1181.49 632.273 1183.45 568.983 1184.49C447.691 1186.47 325.404 1158.94 208.045 1130.52C96.6759 1103.56 -16.7573 1072.42 -118.388 1018.22C-119.868 1020.98 -120.606 1022.35 -122.08 1025.07C-21.0397 1078.59 92.3382 1108.94 202.853 1135.78C321.275 1164.55 445.141 1193.17 567.6 1190.93C630.725 1189.78 697.967 1187.64 758.462 1208.95C812.979 1228.15 858.194 1267.19 901.762 1303.74C935.868 1332.36 971.098 1359.87 1008.88 1383.64C1041.53 1404.17 1075.87 1421.82 1110.09 1439.54C1136.82 1453.38 1163.37 1467.5 1189.43 1482.57C1190.85 1480.26 1191.56 1479.11 1192.97 1476.8C1166.59 1462.58 1140.04 1448.68 1113.43 1434.89C1079.05 1417.07 1044.57 1399.32 1011.77 1378.68C973.87 1354.83 938.534 1327.21 904.318 1298.49Z" fill="#3DFFFF"/>
<path opacity="0.5" d="M568.663 1258.88C456.164 1261.48 342.497 1236.96 233.119 1212.48C130.579 1189.54 26.2208 1163.52 -69.9658 1120.33C-73.7015 1122.07 -75.6062 1122.94 -79.4893 1124.65C16.5314 1168.95 121.904 1194.59 224.652 1217.69C336.058 1242.73 452.373 1268.43 567.016 1265.76C628.918 1264.32 694.894 1263.57 754.296 1284.08C794.472 1297.94 827.46 1323.8 860.252 1350.05C935.259 1410.09 1014.99 1460.78 1100.97 1503.85C1102.3 1501.4 1102.97 1500.18 1104.31 1497.74C1017.89 1455.3 938.043 1404.82 863.017 1344.64C829.881 1318.07 796.531 1291.76 755.943 1277.58C696.565 1256.83 630.602 1257.45 568.663 1258.88Z" fill="#3DFFFF"/>
<path opacity="0.5" d="M504.801 1326.61C422.617 1319.75 340.488 1306.15 259.231 1291.38C165.656 1274.36 72.2774 1254.63 -19.0861 1228.05C-25.7402 1229.55 -29.0949 1230.3 -35.8657 1231.78C59.1781 1259.19 156.243 1279.68 253.517 1297.37C337.065 1312.57 421.511 1326.7 506.029 1333.7C582.229 1340.01 661.114 1334.53 735.212 1357.61C793.729 1375.83 843.423 1413.43 891.925 1449.59C926.516 1475.39 961.255 1500.92 998.882 1522.19C1000.25 1519.69 1000.93 1518.43 1002.29 1515.93C964.014 1495.39 929.146 1469.84 894.456 1443.85C845.598 1407.24 795.56 1369.29 736.539 1350.86C661.642 1327.47 581.824 1333.03 504.801 1326.61Z" fill="#3DFFFF"/>
<path opacity="0.5" d="M564.159 1297.77C470.842 1300.29 376.99 1281.62 285.915 1263.25C169.668 1239.8 52.5179 1212.16 -58.8755 1170.96C-63.7785 1172.34 -66.2608 1173.02 -71.2744 1174.37C41.87 1217.25 161.73 1244.93 280.097 1268.92C372.616 1287.68 468.366 1307.39 563.213 1304.74C623.401 1303.07 685.58 1301.26 743.568 1320.09C809.421 1341.47 866.679 1385.2 921.306 1426.24C963.67 1458.07 1006.17 1489.86 1053.15 1514.74C1054.47 1512.24 1055.14 1511 1056.46 1508.51C1008.75 1484.37 966.042 1452.45 923.506 1420.38C868.688 1379.04 811.265 1334.99 745.135 1313.39C686.981 1294.39 624.569 1296.13 564.159 1297.77Z" fill="#3DFFFF"/>
<path opacity="0.5" d="M1013.73 1146.21C961.919 1106.02 909.737 1065.16 846.446 1044.78C765.915 1018.85 678.655 1021.55 595.261 1016.73C539.632 1013.51 487.837 1003.78 435.317 984.512C320.157 942.277 209.648 879.92 113.548 803.745C70.084 769.289 29.4097 731.14 -6.50894 688.825C-38.1021 651.598 -61.88 611.568 -86.518 569.776C-91.2982 570.126 -93.805 570.378 -98.6158 571.171C-51.1216 668.119 29.3237 748.564 114.125 813.539C211.307 888 322.129 949.115 437.67 989.839C487.837 1007.52 537.481 1016.62 590.358 1019.91C676.493 1025.29 767.008 1022.69 849.819 1050.97C910.615 1071.74 960.561 1111.69 1010.68 1150.5C1061.23 1189.65 1113.21 1224.81 1168.96 1256.14C1202.04 1274.72 1234.87 1293.69 1267.25 1313.46C1327.4 1350.18 1384.94 1391.21 1445.19 1427.66C1447.37 1426.01 1448.5 1425.2 1450.83 1423.6C1389.43 1389.23 1331.68 1347.37 1271.52 1310.72C1238.37 1290.53 1204.87 1270.95 1171.21 1251.65C1115.99 1219.99 1064.02 1185.22 1013.73 1146.21Z" fill="#3DFFFF"/>
<path opacity="0.5" d="M1026.13 1320.27C995.005 1299.52 965.71 1275.59 936.624 1251.76C887.562 1211.58 837.07 1168.96 777.195 1145.85C713.419 1121.23 642.264 1121 574.918 1118.64C448.035 1114.2 323.911 1091.17 201.384 1057.97C76.7196 1024.19 -59.662 981.071 -156.912 891.963C-157.52 896.288 -157.821 898.451 -158.398 902.777C-60.8171 990.736 76.0622 1032.25 200.42 1064.96C322.983 1097.21 447.543 1120.17 574.285 1124.11C641.41 1126.2 712.012 1126.61 775.591 1151.03C835.061 1173.87 885.123 1216.31 933.724 1256.27C962.724 1280.12 991.945 1304.08 1023.01 1324.81C1063.33 1351.71 1106.83 1374.41 1150.03 1396.99C1190.67 1418.22 1231.17 1439.65 1269.29 1465.21C1270.88 1463.1 1271.68 1462.05 1273.29 1459.95C1234.35 1435.23 1193.66 1413.64 1152.81 1392.29C1109.72 1369.78 1066.38 1347.1 1026.13 1320.27Z" fill="#3DFFFF"/>
<path opacity="0.5" d="M1015.77 1206.5C947.738 1156.74 878.168 1101.91 796.58 1076.41C703.619 1047.36 604.188 1053.08 508.586 1040.61C502.06 1039.69 498.669 1039.15 491.665 1037.92C437.449 1028.49 384.228 1012.62 332.15 995.086C230.256 960.771 129.154 918.168 38.3681 860.075C-38.8024 810.688 -107.955 747.232 -151.99 665.975C-151.892 664.513 -151.842 663.782 -151.738 662.332C-154.527 665.834 -155.879 667.64 -158.484 671.364C-62.8629 850.336 144.01 938.45 327.198 998.724C381.74 1016.67 437.498 1032.98 494.251 1042.22C499.062 1043.02 501.415 1043.38 505.999 1044.02C601.405 1056.52 700.621 1051.08 793.342 1080.27C874.537 1105.83 943.892 1160.46 1011.61 1210.09C1076.58 1257.71 1143.07 1301.99 1214.34 1339.66C1272.06 1370.17 1326.26 1405.04 1378.98 1443.6C1380.64 1441.7 1381.47 1440.75 1383.12 1438.85C1329.22 1400.57 1274.02 1365.33 1215.6 1334.39C1145.38 1297.19 1079.86 1253.37 1015.77 1206.5Z" fill="#3DFFFF"/>
<path opacity="0.5" d="M512.659 1367.85C367.424 1359.45 220.806 1330.66 78.9993 1297.42C72.892 1298.68 66.7724 1299.92 60.6589 1301.15C208.598 1335.32 361.347 1365.9 512.758 1374.62C581.087 1378.56 651.161 1371.03 718.07 1390.36C776.268 1407.19 826.521 1443.69 874.906 1478.83C895.396 1493.71 915.955 1508.52 936.532 1523.3C937.969 1520.8 938.688 1519.54 940.126 1517.04C918.75 1503.04 898.002 1488.17 877.37 1473.11C828.8 1437.68 778.35 1400.9 719.84 1383.94C652.346 1364.39 581.609 1371.85 512.659 1367.85Z" fill="#3DFFFF"/>
<path opacity="0.5" d="M1055.31 1199.05C982.047 1147.53 907.494 1089.1 821.206 1061.19C730.77 1031.94 633.201 1035.9 539.638 1026.45C532.148 1025.93 524.689 1025.04 517.273 1023.91C465.552 1015.94 415.035 999.147 366.152 980.893C262.629 942.246 161.491 892.436 71.5648 827.879C-8.52414 770.382 -81.6456 698.127 -126.854 609.547C-126.688 608.337 -126.602 607.741 -126.43 606.543C-130.092 608.804 -131.874 609.99 -135.352 612.472C-90.0139 702.539 -15.4363 775.531 66.1088 833.225C156.164 896.939 257.235 945.853 360.592 983.842C409.401 1001.78 459.648 1018.08 511.08 1026.55C519.442 1027.84 527.792 1029.02 536.234 1029.7C629.232 1037.63 727.471 1035.71 817.151 1064.69C902.745 1092.34 976.653 1150.25 1049.25 1201.46C1111.01 1245.01 1173.44 1287.15 1239.31 1324.25C1299.4 1358.1 1356.5 1396.26 1412.79 1436.11C1414.4 1434.23 1415.21 1433.29 1416.82 1431.41C1359.82 1392.17 1302.19 1354.18 1242.03 1320.01C1177.44 1283.31 1116.06 1241.77 1055.31 1199.05Z" fill="#3DFFFF"/>
<path opacity="0.5" d="M952.008 1230.06C897.584 1186.99 841.567 1140.51 774.67 1118.27C687.712 1089.36 592.189 1094.6 502.368 1087.99C382.501 1079.18 260.387 1048.98 146.566 1009.92C28.4143 969.379 -84.4168 910.438 -165.206 812.777C-166.226 817.354 -166.711 819.664 -167.645 824.322C-87.7346 920.41 24.6357 976.887 141.344 1015.74C256.092 1053.93 378.624 1082.89 499.062 1091.89C588.65 1098.58 683.902 1092.61 770.67 1121.42C837.807 1143.71 893.885 1190.65 948.439 1234.02C978.195 1257.67 1008.12 1281.42 1039.61 1302.38C1080.91 1329.87 1125.15 1353.39 1169.17 1376.76C1216.47 1401.87 1263.56 1427.31 1307.5 1458.06C1309.15 1456.05 1309.98 1455.05 1311.63 1453.04C1268.81 1424.33 1224.03 1399.4 1178.32 1375.69C1097.97 1334.03 1023.01 1286.26 952.008 1230.06Z" fill="#3DFFFF"/>
<path opacity="0.5" d="M969.2 1210.08C914.4 1167.11 857.776 1121.15 790.989 1098.24C714.494 1072.01 629.386 1073.76 551.072 1066.2C530.913 1064.25 509.888 1063.96 489.465 1061.31C369.875 1045.88 249.198 1008.22 138.161 960.814C20.1813 910.438 -89.3442 839.811 -164.272 733.659C-165.986 737.917 -166.81 740.092 -168.389 744.503C-94.106 849.408 15.1984 917.817 132.238 966.528C244.744 1013.35 366.422 1049.98 487.142 1065.46C507.473 1068.07 527.817 1068.8 548.283 1070.27C550.747 1070.47 551.975 1070.57 554.439 1070.77C632.488 1076.87 714.617 1076.43 789.416 1102.4C855.441 1125.32 911.518 1171.42 965.722 1214C1039.15 1271.66 1117.22 1320.28 1199.62 1364.09C1249.31 1390.51 1297.95 1418.04 1343.82 1450.75C1345.49 1448.81 1346.32 1447.84 1347.99 1445.9C1300.97 1413.8 1251.68 1385.95 1201.49 1359.19C1119.7 1315.6 1042.15 1267.27 969.2 1210.08Z" fill="#3DFFFF"/>
<path opacity="0.5" d="M917.706 1272.61C872.245 1234.87 825.31 1193.85 769.19 1172.7C710.132 1150.45 644.328 1150.87 582.174 1150.56C449.897 1149.89 316.888 1121.88 189.059 1089.37C75.0977 1060.39 -41.9053 1024.5 -142.847 962.608C-143.087 965.373 -143.21 966.743 -143.462 969.484C-43.509 1031.93 74.004 1066.78 187.382 1095.34C315.438 1127.6 448.594 1156.54 581.08 1156.76C642.983 1156.86 708.608 1156.17 767.488 1178.22C823.264 1199.11 869.849 1239.91 914.953 1277.43C979.762 1331.37 1048.2 1375.59 1123.19 1413.99C1159.31 1432.49 1195.26 1451.3 1230.74 1471C1231.74 1469.52 1232.24 1468.79 1233.24 1467.32C1198.22 1446.82 1162.45 1427.81 1126.32 1409.35C1051.18 1370.94 982.68 1326.54 917.706 1272.61Z" fill="#3DFFFF"/>
<path opacity="0.5" d="M1432.63 227.425C1493.59 264.621 1566.23 277.1 1636.49 285.173C1716.75 294.396 1802.56 293.769 1879.57 321.264C1881.89 317.645 1883.02 315.851 1885.26 312.306C1884.66 312.619 1884.36 312.779 1883.76 313.092C1805.72 287.514 1719.54 288.344 1638.77 279.201C1568.79 271.275 1496.36 259.024 1435.81 222.35C1387.82 193.282 1345.85 154.389 1304.49 115.896C1259.65 74.1835 1214.32 33.116 1161.76 1.19714C1160.93 3.94358 1160.52 5.31375 1159.69 8.06018C1212.21 38.6212 1256.89 79.3568 1301.09 120.627C1342.49 159.292 1384.43 198.013 1432.63 227.425Z" fill="#3DFFFF"/>
<path opacity="0.5" d="M1448.95 201.588C1503.23 232.794 1567.68 243.202 1630.06 249.801C1694.21 256.584 1759.27 258.846 1823.15 269.598C1824.85 266.532 1825.69 265.014 1827.31 262.016C1826.68 262.341 1826.36 262.501 1825.72 262.827C1761.59 253.199 1696.47 251.03 1632.21 244.327C1570.19 237.857 1506.14 227.627 1452.02 196.79C1403.74 169.276 1362.34 128.221 1321.73 89.5128C1289.55 58.8474 1257.2 28.3909 1222.26 0.84668C1221.26 3.67299 1220.75 5.08615 1219.75 7.9186C1254.67 33.9821 1286.37 63.7566 1317.88 93.7523C1358.79 132.694 1400.5 173.737 1448.95 201.588Z" fill="#3DFFFF"/>
<path opacity="0.5" d="M1415.65 254.76C1481.39 294.334 1554.39 310.481 1630.09 320.557C1720.43 332.588 1825.1 332.366 1904.57 383.443C1907.31 379.504 1908.66 377.544 1911.34 373.649C1910.76 373.968 1910.48 374.128 1909.9 374.454C1828.67 325.202 1723.93 326.05 1632.8 314.18C1557.65 304.392 1484.24 288.847 1418.96 249.488C1369.58 219.714 1326.73 180.6 1284.52 141.118C1230.73 90.7909 1175.98 42.3075 1109.16 9.83569C1107.74 12.1828 1107.03 13.3502 1105.61 15.6972C1172.95 47.2536 1227.6 95.5219 1281.25 146.045C1323.38 185.718 1366.17 224.973 1415.65 254.76Z" fill="#3DFFFF"/>
<path opacity="0.5" d="M1574.93 182.419C1542.57 176.14 1510.9 167.071 1481.93 151.01C1455.48 136.338 1432.41 116.16 1410.7 95.258C1409.06 97.175 1408.24 98.1334 1406.6 100.057C1429.07 120.504 1452.5 140.522 1479.2 155.299C1508.04 171.261 1539.47 180.723 1571.62 187.346C1572.95 185.374 1573.62 184.385 1574.93 182.419Z" fill="#3DFFFF"/>
<path opacity="0.5" d="M1282.45 218.405C1283.43 219.597 1283.92 220.193 1284.9 221.391C1312.55 255.006 1340.71 286.021 1376.81 310.807C1403.81 329.344 1432.57 346.83 1462.63 359.892C1520.19 384.905 1583.18 393.888 1644.48 404.855C1739.71 421.893 1841.84 441.579 1910.15 516.138C1913.17 512.187 1914.68 510.209 1917.7 506.252C1917.12 506.535 1916.82 506.676 1916.24 506.965C1845.43 431.478 1739.59 413.137 1642.09 396.462C1580.73 385.968 1518.42 376.727 1460.93 351.647C1432.21 339.119 1404.72 322.438 1378.87 304.773C1342.77 280.117 1314.57 249.052 1286.77 215.677C1285.85 214.583 1285.4 214.036 1284.48 212.937C1253.36 175.605 1220.88 139.09 1180.2 111.921C1129.65 78.1648 1071.49 56.052 1015.51 33.2327C1013.92 35.42 1013.12 36.5198 1011.53 38.7071C1068.25 61.293 1127.29 83.1232 1178.46 117.076C1219.25 144.153 1251.55 180.852 1282.45 218.405Z" fill="#3DFFFF"/>
<path opacity="0.5" d="M1347.64 77.8515C1383.55 114.311 1420.19 152.97 1464.7 178.407C1510.28 204.458 1565.19 211.37 1616.8 216.101C1655.96 219.695 1695.49 221.704 1734.71 225.95C1736.15 223.548 1736.86 222.356 1738.25 219.99C1699.36 216.709 1660.24 214.829 1621.47 211.419C1568.64 206.78 1513.82 199.641 1467.53 173.964C1423.37 149.468 1386.86 109.955 1351.28 73.483C1332.94 54.6819 1314.57 35.8931 1296.07 17.2456C1294.8 20.1088 1294.16 21.5404 1292.89 24.4035C1311.76 41.5949 1329.74 59.6832 1347.64 77.8515Z" fill="#3DFFFF"/>
<path opacity="0.5" d="M522.318 1409.45C434.038 1408.02 344.826 1393.44 257.714 1377.98C251.336 1379.39 244.952 1380.77 238.562 1382.11C331.038 1398.12 425.541 1413.82 519.27 1415.65C581.056 1416.86 643.234 1407.29 704.233 1423.12C761.638 1438.01 810.791 1473.24 857.18 1508.81C858.746 1506.37 859.527 1505.15 861.1 1502.72C814.023 1467.24 764.231 1432.09 706.378 1417.1C645.649 1401.36 583.777 1410.44 522.318 1409.45Z" fill="#3DFFFF"/>
<path opacity="0.5" d="M1295.13 356.003C1308.78 375.523 1322.53 395.067 1337.04 413.887C1379.59 469.074 1436.28 513.305 1499.77 542.214C1568.25 573.401 1641.49 593.652 1710.57 622.677C1772.84 648.845 1829.01 683.351 1882.39 725.014C1884.52 722.016 1885.61 720.504 1887.8 717.457C1887.23 717.69 1886.94 717.807 1886.38 718.047C1832.28 675.388 1775.07 640.391 1711.57 614.137C1650.08 588.706 1585.92 568.947 1523.92 544.155C1484.93 528.561 1448.09 510.239 1414.74 484.557C1366.1 447.084 1330.08 399.559 1295.04 349.754C1261.02 301.4 1225.43 251.767 1177.57 216.027C1128.69 179.531 1069.68 158.813 1012.66 138.893C958.829 120.086 906.063 99.9518 858.415 68.0022C856.928 69.9929 856.178 70.9821 854.648 72.936C903.292 104.204 956.684 124.516 1010.99 143.385C1068.38 163.335 1127.87 184.071 1177.06 220.881C1225.28 256.959 1261 307.169 1295.13 356.003Z" fill="#3DFFFF"/>
<path opacity="0.5" d="M1278.52 250.219C1303.44 283.735 1328.94 317.332 1362.82 341.527C1405.66 372.113 1451.19 400.529 1502.15 417.002C1559.4 435.508 1619.24 445.572 1677.45 459.704C1761.52 480.108 1843.2 509.508 1902.24 576.031C1905.17 572.308 1906.64 570.44 1909.59 566.698C1908.98 566.987 1908.68 567.134 1908.08 567.429C1846.32 498.516 1760.21 469.602 1672.63 449.431C1605.41 433.948 1534.81 423.711 1470.4 397.543C1436.79 383.885 1405.05 363.652 1375.46 342.768C1339 317.043 1310.99 285.8 1284.39 250.33C1282.77 248.161 1281.95 247.079 1280.32 244.911C1253.39 209.09 1225.05 174.185 1188.56 147.643C1142 113.782 1087.19 91.909 1034.16 70.6134C1014.17 62.5892 994.071 54.6571 974.73 45.1337C973.021 47.2595 972.167 48.3225 970.453 50.4484C990.833 59.0993 1011.43 67.2772 1031.99 75.4735C1085.12 96.6339 1140.31 118.175 1186.92 152.079C1223.59 178.744 1251.68 214.116 1278.52 250.219Z" fill="#3DFFFF"/>
<path opacity="0.5" d="M1301.31 389.538C1311.19 404.48 1321.11 419.46 1331.35 434.132C1373.55 494.603 1431.25 543.866 1496.87 577.573C1564.15 612.128 1636.48 635.869 1705.24 666.952C1766.3 694.552 1822.76 729.235 1880.22 763.556C1881.96 760.853 1882.87 759.507 1884.71 756.761C1884.14 756.988 1883.86 757.099 1883.3 757.326C1825.21 721.801 1767.9 686.312 1705.73 658.602C1647.16 632.502 1586.64 610.168 1527.9 584.08C1488.85 566.741 1451.37 547.043 1417.86 520.34C1369.56 481.841 1334.56 433.18 1300.62 382.263C1264.07 327.414 1224.75 269.77 1169.27 232.162C1119.58 198.479 1059.32 183.672 1002.5 167.783C935.985 149.185 876.632 111.724 820.585 71.7686C818.902 73.5872 818.048 74.4843 816.309 76.2661C873.284 115.159 932.753 153.412 999.429 172.158C1055.85 188.022 1115.99 201.938 1165.71 234.877C1223.32 273.051 1263.85 332.907 1301.31 389.538Z" fill="#3DFFFF"/>
<path opacity="0.5" d="M1275.89 308.927C1296.37 337.614 1317.12 366.147 1341.65 391.313C1388.29 439.176 1443.99 478.296 1506.55 503.014C1574.77 529.962 1646.78 547.104 1714.8 573.616C1779.08 598.672 1836.63 633.073 1887.47 680.346C1889.96 677.084 1891.21 675.443 1893.74 672.144C1893.13 672.402 1892.83 672.531 1892.22 672.789C1840.14 624.367 1781.04 589.431 1715.01 564.314C1647.33 538.57 1575.74 522.098 1507.86 495.899C1445.7 471.912 1390.56 433.757 1343.73 387.037C1318.26 361.619 1296.96 332.403 1275.97 303.059C1247.68 263.509 1218.47 223.265 1179.15 193.822C1134 160.017 1079.36 140.35 1026.86 121.383C981.144 104.873 936.169 88.0753 895.046 61.637C893.025 63.382 892.005 64.2483 889.953 65.9625C932.446 92.026 978.262 109.236 1024.95 125.96C1077.78 144.884 1132.76 164.576 1178.16 198.565C1217.86 228.297 1247.35 268.941 1275.89 308.927Z" fill="#3DFFFF"/>
<path opacity="0.5" d="M1272.08 276C1304.32 320.416 1338.25 360.703 1382.6 393.642C1417.14 419.288 1453.5 441.234 1493.9 456.331C1564.79 482.818 1639.93 497.662 1711.33 521.502C1779.97 544.413 1842.69 577.211 1893.77 629.743C1896.54 626.284 1897.94 624.545 1900.74 621.061C1900.11 621.344 1899.79 621.485 1899.15 621.762C1845.93 567.165 1780.22 533.882 1708.56 510.952C1637.5 488.213 1562.8 474.014 1492.51 447.772C1452.05 432.67 1415.74 410.397 1381.18 384.739C1338.03 352.71 1304.73 313.854 1273.27 270.71C1246.26 233.679 1218.29 196.366 1181.15 168.815C1137.29 136.288 1084.6 116.719 1033.98 97.6477C1000.49 85.0338 967.123 72.4506 935.585 55.376C933.65 57.336 932.679 58.3129 930.719 60.2545C963.486 76.8805 997.727 89.6604 1032.1 102.471C1082.87 121.407 1135.76 140.866 1179.7 173.46C1217.01 201.152 1245.03 238.736 1272.08 276Z" fill="#3DFFFF"/>
<path opacity="0.5" d="M1294.81 192.298C1325.7 227.842 1357.95 260.167 1398.37 284.295C1430.51 303.471 1463.05 320.373 1499.11 331.863C1539.2 344.642 1581.01 352.771 1622.53 358.676C1719.61 372.482 1836.72 379.965 1912.63 450.408C1915.59 446.371 1917.06 444.356 1920 440.337C1919.43 440.626 1919.15 440.768 1918.59 441.056C1839.57 370.565 1721.36 366.423 1622.33 351.315C1581.52 345.085 1540.57 337.614 1501.02 325.19C1465.49 314.026 1433.35 297.738 1401.69 278.912C1360.78 254.594 1327.9 221.938 1296.33 186.32C1270.69 157.4 1244.29 129.395 1213.63 105.66C1167.58 70.0175 1115.17 43.9479 1061.59 21.7C1060.11 23.9794 1059.37 25.1161 1057.89 27.3956C1112.48 49.5698 1166.2 75.5288 1213.02 111.712C1243.55 135.299 1269.59 163.267 1294.81 192.298Z" fill="#3DFFFF"/>
<path opacity="0.5" d="M1706.23 997.882C1627.86 969.035 1545.83 941.478 1480.35 887.797C1396.44 819.013 1335.67 720.572 1278.18 630.271C1245.63 579.158 1213.35 526.564 1165.59 488.016C1097.63 433.173 1011.54 409.033 933.846 373.164C848.099 333.577 764.594 286.101 683.878 236.229C630.436 203.21 578.967 167.12 526.33 133.032C512.727 124.221 498.994 115.49 484.703 107.779C481.914 108.179 480.513 108.375 477.723 108.775C496.85 119.355 515.252 131.244 533.463 143.25C661.913 227.904 790.682 314.038 931.118 377.772C1009.21 413.211 1095.41 438.476 1163.29 493.275C1211.05 531.836 1243.39 584.356 1275.97 635.5C1277.24 637.479 1277.87 638.462 1279.14 640.44C1336.04 729.493 1396.02 826.479 1478.97 894.144C1544.21 947.352 1625.87 974.688 1703.8 1003.35C1771.09 1028.1 1838.12 1053.44 1904.02 1081.75C1906.07 1079.08 1907.07 1077.74 1909.04 1075.05C1908.19 1075.3 1907.77 1075.43 1906.91 1075.67C1840.74 1047.89 1773.58 1022.67 1706.23 997.882Z" fill="#3DFFFF"/>
<path opacity="0.5" d="M1713.54 966.068C1680.22 953.662 1646.72 941.276 1613.83 928.152C1532.23 895.606 1465.19 844.284 1408.17 777.362C1354.61 714.489 1311.2 643.838 1267.9 573.745C1264.99 569.014 1263.52 566.643 1260.6 561.912C1228.42 509.674 1189.18 461.541 1136.78 428.559C1084.34 395.553 1024.4 379.848 967.621 356.974C880.632 321.934 796.844 275.238 716.571 226.454C651.769 187.07 589.977 143.09 525.599 103.073C522.078 103.663 520.315 103.952 516.776 104.523C581.129 143.305 642.417 186.996 706.575 226.134C788.408 276.068 873.591 323.679 961.79 360.261C1023.53 385.87 1090.29 402.367 1146.23 441.013C1199.1 477.534 1236.21 531.394 1269.69 585.198C1329.74 681.704 1393.82 785.669 1482.36 859.227C1547.38 913.252 1628.11 941.227 1706.44 969.828C1774.73 994.773 1842.67 1020.5 1909.24 1049.84C1910.9 1047.04 1911.71 1045.63 1913.3 1042.81C1912.5 1043.06 1912.11 1043.18 1911.31 1043.43C1846.3 1015.38 1779.89 990.767 1713.54 966.068Z" fill="#3DFFFF"/>
<path opacity="0.5" d="M1763.5 1054.92C1710.01 1034.98 1656.28 1015.42 1603.75 993.028C1542.31 966.848 1484.47 935.427 1437.45 887.238C1377.44 825.747 1330.33 752.005 1283.93 680.156C1282.79 678.386 1282.23 677.508 1281.08 675.738C1245.49 620.515 1210.4 562.944 1159.12 520.654C1089.99 463.642 1001.21 436.731 921.564 398.957C782.326 332.919 651.529 248.886 524.603 161.473C499.142 143.938 473.416 125.979 445.528 112.412C441.829 112.965 439.986 113.248 436.306 113.819C466.615 127.508 494.288 146.979 521.531 165.799C648.623 253.605 779.512 337.392 918.978 403.878C998.305 441.695 1087.36 468.3 1156.33 525.084C1208.5 568.044 1244.02 627.034 1280.2 683.16C1281.34 684.936 1281.91 685.827 1283.06 687.602C1329.57 759.71 1376.86 833.962 1437.72 895.072C1487.74 945.319 1550.24 977.035 1615.01 1004.18C1673.54 1028.71 1733.28 1050.36 1792.75 1072.44C1825.53 1084.62 1858.29 1096.89 1890.8 1109.79C1892.95 1107.85 1894.01 1106.87 1896.09 1104.91C1895.47 1104.67 1895.15 1104.54 1894.53 1104.29C1850.96 1087.54 1807.24 1071.22 1763.5 1054.92Z" fill="#3DFFFF"/>
<path opacity="0.5" d="M1504.36 1017.22C1443.57 985.004 1407.54 929.252 1370.31 873.451C1314.83 790.29 1256.13 709.722 1192.58 632.57C1117.91 541.925 1004.84 507.622 902.407 459.249C821.218 420.91 742.493 376.856 667.141 327.863C592.846 279.558 521.255 227.068 448.281 176.957C421.64 158.659 394.243 137.419 363.872 125.53C360.493 126.402 358.797 126.851 355.412 127.748C387.251 140.067 415.33 160.853 443.23 180.102C517.255 231.166 589.762 284.872 665.151 334.093C740.564 383.326 819.535 427.386 900.957 465.608C1002.87 513.447 1114.64 547.129 1189.27 636.772C1252.64 712.88 1310.68 792.766 1365.66 875.147C1402.91 930.96 1439.05 988.862 1499.78 1021.56C1609.18 1080.46 1729.99 1119.32 1848.35 1155.71C1850.98 1154.05 1852.29 1153.22 1854.87 1151.55C1854.09 1151.31 1853.7 1151.19 1852.92 1150.95C1734.56 1114.58 1613.92 1075.28 1504.36 1017.22Z" fill="#3DFFFF"/>
<path opacity="0.5" d="M1471.93 1035.16C1417.44 1001.99 1384.8 943.254 1352.43 890.359C1297.18 800.089 1236.81 714.876 1162.96 638.929C1089.99 563.89 986.367 533.575 893.258 491.869C811.111 455.077 731.298 412.185 656.094 362.473C579.188 311.636 506.988 253.949 431.833 200.753C396.08 175.451 361.108 149.781 320.261 133.339C316.692 134.279 314.91 134.752 311.358 135.729C354.945 152.423 391.669 179.119 429.467 206.031C505.624 260.24 578.266 319.58 656.364 371.173C731.022 420.486 810.515 462.573 892.208 498.707C984.222 539.406 1086.33 569.248 1158.88 642.523C1233.88 718.268 1294.42 803.96 1349.45 895.078C1381.21 947.647 1413.32 1005.84 1466.99 1039.13C1575.37 1106.35 1704.04 1141.78 1825.6 1176.36C1827.59 1174.52 1828.64 1173.62 1830.85 1171.85C1830.01 1171.62 1829.58 1171.5 1828.73 1171.27C1707.62 1137.41 1580.22 1101.07 1471.93 1035.16Z" fill="#3DFFFF"/>
<path opacity="0.5" d="M1402.24 876.412C1398.72 871.54 1396.97 869.101 1393.45 864.222C1368.1 829.115 1342.99 793.835 1317.91 758.531C1265.81 685.176 1215.42 603.833 1145.65 545.525C1119.09 523.327 1089.32 505.638 1058.15 490.72C1007.96 466.702 955.621 447.182 905.509 423.128C760.692 353.613 625.588 265.61 493.833 173.866C465.435 154.094 436.699 133.241 405.259 118.44C402.046 119.263 400.448 119.681 397.272 120.541C430.082 134.758 459.721 156.583 488.857 176.963C621.576 269.801 757.675 358.879 903.857 428.885C985.574 468.017 1077.32 494.91 1147.31 554.938C1221.65 618.708 1275.68 706.588 1331.7 785.743C1350.41 812.188 1369.15 838.638 1387.97 865.015C1427.78 920.84 1467.72 970.737 1529.95 1001.56C1638.66 1055.39 1756.25 1094.66 1871.71 1134.15C1874.15 1132.37 1875.36 1131.48 1877.76 1129.69C1877.05 1129.45 1876.68 1129.33 1875.97 1129.09C1802.87 1104.21 1729.85 1078.95 1657.9 1050.91C1595.5 1026.59 1529.16 1001.34 1475.75 959.776C1446.03 936.631 1424.01 906.777 1402.24 876.412Z" fill="#3DFFFF"/>
<path opacity="0.5" d="M1714.28 931.501C1635.08 902.605 1554.12 873.844 1487.75 820.199C1398.15 747.772 1333.63 645.865 1276.01 547.86C1251.72 506.541 1225.15 465.51 1189.43 432.989C1152.92 399.737 1108.19 378.116 1061.59 362.835C1008.82 345.527 957.538 327.23 907.482 302.973C859.072 279.515 811.701 253.869 765.165 226.902C696.197 186.935 630.209 142.562 563.711 98.6924C560.307 99.3252 558.593 99.6324 555.158 100.241C624.372 144.773 692.517 190.707 763.85 231.873C809.821 258.403 856.596 283.625 904.342 306.819C954.724 331.291 1006.25 349.883 1059.31 367.529C1105.71 382.964 1150.25 404.536 1186.76 437.56C1222.13 469.547 1248.52 509.926 1272.6 550.668C1331 649.429 1396.11 752.405 1486.38 825.643C1552.88 879.607 1634.08 908.565 1713.52 937.626C1779.96 961.933 1846.01 987.087 1910.43 1016.42C1911.85 1013.56 1912.54 1012.12 1913.91 1009.24C1913.17 1009.49 1912.81 1009.62 1912.08 1009.88C1847.27 980.887 1780.95 955.819 1714.28 931.501Z" fill="#3DFFFF"/>
<path opacity="0.5" d="M1699.65 785.374C1618.85 758.666 1540.6 721.654 1473.45 668.703C1410.46 619.034 1357.58 556.437 1317.95 486.818C1311.82 476.041 1305.76 465.209 1299.75 454.365C1280.55 419.73 1261.35 384.592 1236.08 353.883C1209.57 321.676 1176.61 296.534 1139.07 279.594C1104.54 264.019 1067.48 254.281 1030.43 244.978C914.462 215.855 807.762 156.232 713.198 83.6331C710.894 85.0032 709.726 85.679 707.361 87C803.805 159.249 911.844 219.941 1029.15 249.439C1065.78 258.649 1102.45 268.252 1136.7 283.367C1174.39 299.999 1207.41 325.012 1233.94 357.22C1259.34 388.045 1278.55 423.386 1297.79 458.186C1303.65 468.791 1309.55 479.408 1315.52 489.952C1355.32 560.191 1408.27 623.495 1471.43 674.012C1538.13 727.349 1616.28 764.417 1696.94 791.088C1764.78 813.521 1831.49 839.584 1894.19 874.2C1895.15 871.22 1895.63 869.733 1896.6 866.766C1896.09 867.012 1895.82 867.135 1895.31 867.374C1832.9 833.606 1766.89 807.604 1699.65 785.374Z" fill="#3DFFFF"/>
<path opacity="0.5" d="M1702.42 750.144C1556.81 699.639 1416.4 617.037 1333.34 484.889C1321.98 466.8 1311.43 447.895 1300.99 429.094C1269.75 372.862 1236.65 318.339 1182.51 282.838C1140.18 255.091 1092.28 240.776 1043.01 228.186C999.152 216.979 957.09 203.708 916.2 183.936C856.983 155.298 800.949 119.656 748.803 79.6392C746.702 81.1629 745.633 81.9125 743.47 83.3871C796.519 123.14 853.315 158.561 913.073 187.346C954.951 207.517 997.936 221.299 1042.8 232.929C1091.46 245.55 1139.19 259.503 1181.15 286.672C1235.43 321.817 1268.25 376.506 1299.2 432.737C1309.65 451.735 1320.22 470.825 1331.64 489.097C1414.46 621.571 1553.45 706.606 1699.96 756.269C1764.52 778.155 1827.54 802.719 1886.99 836.45C1888.06 833.599 1888.6 832.18 1889.71 829.348C1889.21 829.581 1888.95 829.692 1888.44 829.925C1829.25 796.575 1766.38 772.336 1702.42 750.144Z" fill="#3DFFFF"/>
<path opacity="0.5" d="M1684.2 689.857C1618.51 661.133 1549.95 637.485 1487.36 602.027C1423.8 566.016 1370.31 514.38 1330.88 453.56C1320.9 438.168 1311.42 422.237 1302 406.379C1271.27 354.67 1239.05 304.245 1190.66 268.449C1147.23 236.321 1097.83 219.806 1045.43 206.153C1006.97 196.138 969.495 184.895 933.422 167.924C880.386 142.973 830.686 111.036 784.169 75.4919C782.27 77.1569 781.306 77.9802 779.346 79.6023C827.393 115.484 878.475 147.974 932.876 173.399C969.323 190.43 1007.12 201.637 1045.98 211.572C1097.29 224.696 1145.7 240.53 1188.42 271.576C1237.48 307.237 1269.73 358.116 1300.44 410.286C1309.65 425.936 1318.91 441.701 1328.66 456.908C1368.2 518.589 1422.04 571.134 1486.02 608.054C1548.54 644.139 1617.21 668.396 1683.05 697.359C1751.28 727.373 1818.86 761.424 1882.64 800.163C1883.99 797.325 1884.68 795.911 1886.1 793.097C1885.6 793.312 1885.35 793.417 1884.84 793.632C1820.46 754.961 1752.95 719.921 1684.2 689.857Z" fill="#3DFFFF"/>
<path opacity="0.5" d="M1673.09 846.908C1595.39 820.457 1521.63 781.504 1460.5 726.133C1395.14 666.94 1343.61 594.482 1300.4 518.043C1297.49 512.832 1294.58 507.622 1291.68 502.412C1247.87 423.718 1199.57 345.054 1108.9 316.011C1078.02 306.119 1046.79 297.327 1015.5 288.805C954.146 272.105 896.514 246.447 840.474 216.543C770.559 179.242 702.771 136.934 638.7 90.2872C635.573 91.0798 633.994 91.4669 630.817 92.2164C750.56 177.46 881.842 257.426 1024.43 296.767C1077.39 311.378 1135.06 323.882 1179.48 358.141C1232.41 398.975 1265.42 464.029 1297.46 520.9C1340.82 597.843 1392.72 671.069 1458.34 730.968C1519.22 786.542 1592.37 825.76 1670 852.327C1750.62 879.914 1830.52 909.64 1907.01 947.482C1908.04 944.514 1908.54 943.027 1909.55 940.053C1908.95 940.311 1908.66 940.447 1908.06 940.705C1832.06 903.754 1753 874.108 1673.09 846.908Z" fill="#3DFFFF"/>
<path opacity="0.5" d="M1671.04 811.487C1594.83 786.093 1521.88 747.28 1461.74 693.593C1397.87 636.575 1346.43 567.718 1304.69 493.232C1301.72 487.856 1298.75 482.486 1295.77 477.11C1275.18 439.705 1254.61 401.672 1226.83 368.991C1197.97 335.039 1161.78 309.989 1120.44 294.77C1089.68 283.447 1057.42 275.048 1025.39 266.802C898.462 234.128 780.372 165.27 676.185 86.8893C673.685 88.1181 672.419 88.7202 669.857 89.8999C776.298 168.084 895.949 238.324 1024.53 271.57C1055.91 279.68 1087.54 287.938 1117.77 298.813C1159.2 313.719 1195.45 338.639 1224.35 372.543C1252.25 405.279 1272.91 443.434 1293.59 480.932C1296.38 485.988 1299.18 491.045 1301.98 496.102C1344.04 571.263 1395.17 641.153 1459.29 699.073C1519.06 753.062 1592.1 791.604 1668.15 817.072C1747.44 843.627 1825.8 872.381 1900.28 910.758C1901.22 907.759 1901.7 906.26 1902.64 903.268C1902.09 903.526 1901.81 903.649 1901.25 903.907C1827.28 866.286 1749.62 837.673 1671.04 811.487Z" fill="#3DFFFF"/>
<path opacity="0.5" d="M1714.78 897.222C1637.73 869.5 1559.63 841.452 1494.32 790.585C1406.02 721.819 1342.38 625.669 1287.29 529.716C1255.84 474.929 1221.65 416.05 1169.81 377.876C1127.84 346.971 1076.11 333.595 1026.87 319.138C1024.71 318.511 1023.64 318.204 1021.48 317.577C869.376 272.891 730.666 184.379 601.522 94.4467C598.223 95.1532 596.564 95.5035 593.221 96.1793C726.187 186.492 866.562 277.155 1021.79 323.39C1024.76 324.275 1026.25 324.717 1029.22 325.608C1077.07 339.85 1126.88 353.281 1167.64 383.363C1219.21 421.426 1253.58 479.599 1285.01 534.128C1340.48 630.376 1404.47 727.152 1493.11 796.256C1558.81 847.485 1637.43 875.748 1714.96 903.723C1781.06 927.574 1846.63 952.409 1910.19 982.521C1911.37 979.591 1911.96 978.122 1913.1 975.179C1912.44 975.45 1912.12 975.585 1911.46 975.855C1847.32 946.001 1781.29 921.154 1714.78 897.222Z" fill="#3DFFFF"/>
<path opacity="0.5" d="M704.854 959.85C648.783 959.973 590.008 961.3 535.048 948.176C485.717 936.398 438.782 905.118 397.604 876.683C352.039 845.218 309.343 809.582 269.812 770.825C226.821 728.676 187.843 682.46 145.989 639.174C87.8406 579.036 26.5159 522.165 -37.7458 468.607C-40.7072 469.946 -42.1757 470.604 -45.1003 471.876C16.9187 523.738 76.0623 578.821 132.128 637.061C172.065 678.546 209.384 722.643 250.445 763.016C291.605 803.487 336.113 840.641 383.515 873.592C427.01 903.827 474.645 934.333 525.672 950.056C580.362 966.909 643.259 964.126 699.761 964.206C782.866 964.323 867.969 965.822 944.771 1001.52C1031.91 1042.02 1108.42 1109.21 1182.19 1169.41C1232.49 1210.44 1282.82 1251.83 1337.04 1287.68C1362.28 1304.38 1388.27 1319.89 1414.59 1334.83C1486.67 1375.75 1565.23 1404.5 1642.16 1434.8C1645.17 1433.45 1646.66 1432.76 1649.59 1431.38C1570.08 1400.42 1488.74 1371.18 1414.12 1329.33C1387.79 1314.57 1361.82 1299.17 1336.66 1282.48C1283.42 1247.16 1234.32 1206.05 1185.1 1165.48C1111.91 1105.16 1036.07 1038.13 949.502 997.292C872.94 961.189 787.886 959.665 704.854 959.85Z" fill="#3DFFFF"/>
<path opacity="0.5" d="M1205.94 1091.89C1146.5 1027.2 1083.6 959.831 1006.01 916.533C944.832 882.396 876.921 881.26 808.721 887.201C805.919 887.447 804.512 887.576 801.71 887.834C740.988 893.37 678.785 902.334 618.424 888.964C579.766 880.406 546.311 861.955 517.667 834.681C488.101 806.528 460.95 775.789 433.172 745.91C386.913 696.155 339.91 646.971 291.519 599.458C195.105 504.789 89.7699 419.208 -26.4835 349.472C-27.9704 352.187 -28.6954 353.545 -30.1147 356.236C82.698 423.945 184.992 507.032 278.93 598.512C328.114 646.406 375.89 696.026 422.887 746.242C451.592 776.914 479.671 808.421 510.072 837.446C539.675 865.709 573.216 884.964 613.276 893.91C674.938 907.679 738.549 898.678 800.635 893.314C802.853 893.124 803.965 893.032 806.183 892.847C873.873 887.189 941.852 888.19 1002.65 921.965C1080.37 965.14 1143.72 1032.08 1203.67 1096.39C1243.31 1138.9 1282.99 1182.15 1328.24 1218.9C1371.78 1254.26 1421 1282.68 1472.85 1303.96C1583.39 1349.35 1697.83 1386.09 1810.75 1424.94C1811.27 1422.66 1811.33 1422.55 1810.94 1419.67C1701.04 1382.03 1590.08 1346 1482.09 1303.09C1429.49 1282.2 1379.72 1254.72 1335.46 1219.3C1288.14 1181.43 1246.84 1136.39 1205.94 1091.89Z" fill="#3DFFFF"/>
<path opacity="0.5" d="M793.84 916.054C789.729 916.306 787.671 916.441 783.561 916.711C733.467 920.115 683.202 924.263 633.066 919.016C601.639 915.728 570.322 908.767 541.592 895.324C491.499 871.884 451.82 828.199 413.468 789.792C346.19 722.415 282.057 651.702 212.905 586.322C135.654 513.287 53.2182 445.56 -34.6123 385.28C-37.9855 386.767 -39.6567 387.498 -42.9684 388.942C43.1111 447.151 123.661 512.986 199.197 584.031C270.696 651.278 336.709 724.283 406.298 793.564C445.209 832.303 486.307 875.976 536.996 899.588C566.187 913.185 598.149 920.048 630.043 923.353C681.685 928.705 733.504 924.607 785.14 921.553C787.683 921.406 788.955 921.332 791.493 921.191C858.022 917.498 925.644 919.163 985.826 951.045C1065.42 993.212 1132.54 1059.36 1196.6 1121.35C1248.7 1171.76 1301.13 1223.11 1361.66 1263.54C1388.81 1281.67 1417.46 1297.92 1446.88 1312.09C1479.21 1327.67 1513.12 1340.22 1546.61 1353.01C1620.34 1381.15 1694.61 1407.85 1768.87 1434.54C1770.27 1432.6 1770.94 1431.63 1772.2 1429.65C1698.35 1403.36 1624.49 1377.07 1551.14 1349.41C1517.04 1336.56 1482.6 1323.91 1449.6 1308.41C1419.84 1294.42 1390.92 1278.02 1363.56 1259.78C1302.92 1219.31 1250.62 1167.65 1198.81 1116.83C1136.87 1056.08 1072.77 992.475 996.363 949.761C933.939 914.85 863.742 911.778 793.84 916.054Z" fill="#3DFFFF"/>
<path opacity="0.5" d="M1350.17 933.461C1344.85 923.814 1339.48 914.143 1333.97 904.644C1277.91 807.923 1212.78 709.568 1122.04 641.141C1053.33 589.339 972.352 564.148 893.67 532.033C892.226 531.449 891.501 531.154 890.051 530.558C809.047 497.294 730.143 457.707 656.666 409.949C593.872 369.133 535.995 321.565 477.558 274.882C470.375 269.156 463.193 263.442 455.992 257.74C423.422 232.063 390.458 207.026 356.131 183.734C329.926 165.952 302.37 153.062 272.945 141.431C269.271 142.469 267.44 142.998 263.797 144.092C296.127 156.533 326.369 170.468 355.007 189.97C392.971 215.824 428.957 244.296 464.71 273.051C495.111 297.499 525.42 322.278 555.883 346.553C656.733 426.913 769.755 489.866 889.51 538.011C893.301 539.535 895.181 540.284 898.905 541.759C978.182 573.113 1058.18 598.685 1126.4 651.745C1221.39 725.623 1287.77 831.498 1345.55 935.23C1347.65 939.039 1348.71 940.944 1350.8 944.753C1375.5 989.722 1403.27 1030.9 1445.35 1061.52C1481.03 1087.49 1522.09 1105.75 1562.98 1121.76C1643.95 1153.45 1728.25 1176.39 1811.98 1199.42C1812.97 1197.27 1813.5 1196.2 1814.62 1194.1C1731.64 1171.29 1648.2 1148.47 1567.89 1117.26C1526.55 1101.2 1485.03 1082.92 1448.93 1056.82C1404.59 1024.76 1376.19 980.574 1350.17 933.461Z" fill="#3DFFFF"/>
<path opacity="0.5" d="M1213.69 1066.71C1161.11 1002.74 1105.4 935.802 1033.59 892.455C969.79 853.937 901.289 848.395 828.327 855.455C784.949 859.651 741.443 865.924 697.966 865.893C643.198 865.85 596.957 848.856 554.906 813.447C527.946 790.744 505.12 764.318 482.012 737.849C446.376 697.015 410.076 656.667 372.357 617.903C257.142 499.493 127.513 395.424 -17.3288 314.69C-19.0921 317.406 -19.9523 318.763 -21.642 321.473C117.001 397.839 241.192 496.366 352.045 608.706C394.009 651.235 434.635 695.197 474.387 739.908C495.566 763.729 516.069 788.231 539.589 809.822C566.279 834.319 595.335 855.19 630.786 864.37C694.151 880.775 761.884 867.571 825.716 861.586C894.929 855.098 961.243 857.924 1022.62 893.438C1097.69 936.871 1156.36 1005.46 1211.21 1071.14C1251.76 1119.71 1293.19 1168.93 1342.43 1209.12C1388.09 1246.38 1440.18 1272.59 1495.1 1293.28C1607.36 1335.58 1721.76 1372.48 1835.41 1410.77C1834.17 1407.87 1833.53 1406.42 1832.18 1403.48C1719.71 1365.95 1606.48 1329.84 1495.34 1288.44C1440.74 1268.11 1389.02 1242.36 1343.8 1205.23C1294.78 1164.98 1253.79 1115.49 1213.69 1066.71Z" fill="#3DFFFF"/>
<path opacity="0.5" d="M1201.94 1214.17C1170.45 1193.69 1138.83 1173.13 1108.42 1151.2C1080.78 1131.27 1053.96 1110.01 1027.45 1088.44C990.987 1058.78 954.742 1029.4 910.486 1012.14C834.766 982.614 750.573 982.773 670.576 981.661C619.248 980.948 563.846 982.325 514.379 966.86C430.635 940.686 353.661 887.951 284.398 835.824C159.598 741.904 69.5493 612.926 -44.0252 506.547C-47.1403 507.579 -48.6947 508.077 -51.8098 509.053C-2.38631 555.282 44.1003 604.423 87.8773 656.015C124.527 699.209 162.123 740.792 204.327 778.708C249.444 819.241 297.939 856.063 349.04 888.725C397.757 919.863 449.509 949.054 504.493 967.585C555.465 984.764 612.028 984.647 665.279 985.599C744.029 987.007 826.993 986.085 901.78 1014.43C955.148 1034.65 999.275 1071.84 1043.15 1107.27C1063.7 1123.87 1084.38 1140.51 1105.75 1155.88C1136.3 1177.86 1168.25 1198.36 1200.03 1218.81C1230.32 1238.3 1260.38 1258.14 1290.15 1278.4C1311.73 1293.1 1333.49 1307.5 1355.7 1321.24C1373.55 1332.27 1391.54 1343.05 1409.58 1353.76C1460.12 1383.8 1513.39 1407 1567.57 1429.83C1570.86 1428.58 1572.51 1427.95 1575.77 1426.68C1520.43 1403.72 1465.41 1380.78 1413.6 1350.6C1395.33 1339.97 1377.12 1329.24 1359.09 1318.19C1335.26 1303.58 1312.02 1288.09 1288.97 1272.32C1260.17 1252.62 1231.16 1233.19 1201.94 1214.17Z" fill="#3DFFFF"/>
<path opacity="0.5" d="M734.997 935.359C680.032 936.361 624.237 939.045 569.818 929.497C493.379 916.085 428.767 862.287 373.359 812.144C333.637 776.201 297.417 734.611 259.944 695.633C214.422 648.28 167.899 601.769 119.477 557.555C69.3835 511.812 17.0784 468.25 -36.5416 426.495C-39.6505 427.975 -41.1866 428.694 -44.2402 430.12C7.12482 468.92 56.7081 510.08 104.245 553.31C153.872 598.439 201.47 645.994 247.969 694.49C286.143 734.298 322.786 776.693 364.057 813.121C421.296 863.644 487.615 919.722 565.155 933.669C619.678 943.475 675.651 941.055 730.77 940.237C811.946 939.027 895.15 941.583 968.997 979.148C1050.81 1020.77 1121.43 1085.54 1189.64 1145.78C1241.71 1191.77 1293.89 1238.43 1351.91 1276.96C1460.61 1349.16 1586.11 1390.22 1707.44 1435.67C1709.77 1434.07 1710.9 1433.25 1713.1 1431.6C1590.85 1386.19 1463.27 1345.74 1353.67 1273.14C1295.58 1234.66 1243.66 1187.62 1191.86 1141.32C1124.27 1080.91 1054.31 1016.35 973.046 974.423C899.39 936.416 816.149 933.884 734.997 935.359Z" fill="#3DFFFF"/>
<path opacity="0.5" d="M1222.06 1041.65C1173.64 975.917 1121.79 906.924 1051.76 862.612C987.903 822.208 919.021 813.545 844.806 820.464C798.067 824.82 751.298 832.07 704.227 830.534C590.014 826.804 512.893 712.658 446.136 634.91C321.146 489.331 169.312 372.236 -0.11288 281.929C-2.26333 284.62 -3.31398 285.972 -5.37842 288.669C163.057 378.091 313.331 494.535 438.837 637.804C507.627 716.332 582.463 832.107 697.641 837.169C745.516 839.277 793.631 831.566 841.457 827.019C915.451 819.984 984.106 827.849 1047.96 867.933C1118.12 911.968 1170.45 980.598 1219.34 1045.94C1257.74 1097.24 1297.22 1149.53 1346.26 1191.35C1392.73 1230.98 1446.93 1256.34 1504.04 1276.78C1618.03 1317.57 1733.76 1353.76 1848.85 1391.29C1847.08 1388.21 1846.17 1386.65 1844.32 1383.54C1730.71 1346.84 1616.47 1311.5 1503.91 1271.65C1447.69 1251.75 1394.31 1227.06 1348.59 1188.09C1299.4 1146.16 1260.17 1093.38 1222.06 1041.65Z" fill="#3DFFFF"/>
<path opacity="0.5" d="M1317.85 972.218C1311.75 960.857 1305.63 949.466 1299.4 938.204C1254.55 857.064 1203.35 774.512 1128.3 717.457C1058.12 664.101 975.688 640.876 892.146 617.658C801.557 592.485 713.757 556.124 634.731 504.771C573.701 465.111 519.897 416.369 467.057 366.614C429.799 331.531 392.787 296.122 354.22 262.458C301.528 216.47 240.111 188.243 175.622 162.266C172.046 163.704 170.283 164.447 166.805 165.971C233.93 192.827 298.972 222.583 353.538 270.808C392.51 305.252 429.916 341.423 467.592 377.262C519.965 427.079 573.363 475.857 634.276 515.192C713.026 566.047 800.734 601.093 891.126 625.049C939.751 637.94 988.112 649.49 1034.3 669.815C1069.9 685.483 1103.92 704.671 1134.35 729.002C1213.84 792.551 1266.04 884.873 1312.84 973.318C1335.35 1015.85 1358.62 1059.35 1393.4 1093.36C1435.74 1134.74 1491.1 1157.14 1546.46 1175.37C1634.46 1204.36 1724.25 1228.27 1813.47 1253.13C1813.04 1250.52 1812.82 1249.22 1812.42 1246.62C1723.82 1222.19 1634.62 1198.7 1547.36 1169.72C1491.81 1151.26 1435.79 1128.45 1393.71 1086.39C1361.06 1053.76 1339.47 1012.46 1317.85 972.218Z" fill="#3DFFFF"/>
<path opacity="0.5" d="M1265.54 941.393C1227.84 872.105 1187.41 799.58 1124.12 750.236C1054.71 696.112 970.662 675.234 886.162 658.031C796.076 639.691 708.129 610.199 630.061 560.818C568.448 521.846 515.879 471.439 464.6 420.074C426.285 381.692 388.879 342.044 348.93 305.332C287.746 249.107 209.034 209.674 132.994 178.179C129.768 179.949 128.189 180.858 125.099 182.726C203.731 216.359 283.679 256.794 347.978 314.192C388.682 350.529 425.75 391.455 464.102 430.23C515.135 481.823 567.489 532.549 629.214 571.361C706.925 620.22 794.614 648.243 884.325 665.262C933.766 674.638 982.121 683.762 1028.71 703.301C1061.48 717.045 1093.21 733.616 1121.36 755.477C1184.54 804.544 1224.93 876.799 1262.59 945.81C1294.75 1004.73 1328.4 1066.01 1376.95 1113.29C1422.07 1157.22 1477.78 1180.33 1536.97 1199.03C1630.04 1228.44 1724.38 1254.01 1818.21 1280.82C1817.23 1278.02 1816.73 1276.62 1815.75 1273.83C1724.3 1247.99 1632.39 1223.31 1541.67 1194.94C1481.68 1176.19 1425.05 1153.16 1379.39 1108.61C1331.02 1061.4 1297.54 1000.2 1265.54 941.393Z" fill="#3DFFFF"/>
<path opacity="0.5" d="M1332.42 950.596C1280.63 854.846 1221.53 756.503 1134.78 687.996C1063.51 631.715 979.049 606.094 894.659 576.633C812.592 547.983 732.65 511.659 659.191 464.969C600.84 427.877 547.945 383.455 495.455 338.658C490.085 334.087 484.715 329.509 479.346 324.932C435.188 287.232 391.632 248.302 345.065 213.551C308.501 186.259 267.114 167.918 224.916 151.096C221.236 152.3 219.405 152.921 215.786 154.192C268.614 174.874 317.779 197.582 362.269 233.016C398.968 262.249 433.867 293.695 468.882 324.901C521.648 371.929 575.059 418.083 634.098 457.179C713.708 509.895 800.807 551.08 891.059 581.991C973.452 610.211 1056.11 634.499 1126.51 687.959C1208.74 750.396 1265.87 840.358 1315.23 929.16C1320.47 938.603 1325.6 948.163 1330.72 957.711C1350.78 995.209 1371.36 1032.68 1401.63 1063.08C1445.82 1107.46 1504.79 1132.25 1562.96 1152.7C1644.38 1181.32 1728.29 1203.28 1811.48 1226.01C1811.65 1223.61 1811.75 1222.41 1812 1220.02C1730.74 1197.87 1648.8 1176.44 1569.24 1148.65C1510.26 1128.04 1450.03 1103.44 1405.16 1058.5C1374.13 1027.42 1353.11 988.85 1332.42 950.596Z" fill="#3DFFFF"/>
<path opacity="0.5" d="M1232.91 1017.7C1189.17 951.524 1142.23 883.269 1076.03 837.532C1046.82 817.354 1013.87 800.606 979.983 789.909C936.071 776.054 890.205 774.567 844.578 776.865C765.89 780.828 686.207 780.121 615.825 740.129C555.158 705.654 509.083 650.179 464.968 597.37C421.996 545.925 378.704 495.967 328.353 451.403C237.334 370.847 133.184 306.727 25.115 251.774C22.5836 254.354 21.3425 255.651 18.8972 258.262C116.429 307.833 209.974 365.502 294.579 435.097C367.817 495.346 428.853 565.316 489.563 637.331C540.08 697.255 600.053 755.385 677.961 776.717C731.495 791.377 786.915 786.757 841.561 783.396C925.103 778.259 1003.2 795.291 1072.64 842.988C1138.84 888.455 1186.09 956.261 1230.18 1022.05C1266.17 1075.75 1303.46 1130.72 1352.13 1173.91C1398 1214.6 1452.58 1238.71 1510.03 1258.39C1621.08 1296.43 1733.6 1330.41 1845.54 1365.7C1843.65 1362.58 1842.69 1361.01 1840.75 1357.87C1730.43 1323.44 1619.56 1290.33 1510.1 1253.22C1453.07 1233.88 1398.96 1210.08 1353.59 1169.59C1305.22 1126.45 1268.41 1071.4 1232.91 1017.7Z" fill="#3DFFFF"/>
<path opacity="0.5" d="M1241.87 991.904C1200.29 923.212 1154.96 850.287 1087.95 803.358C1026.7 760.46 956.924 745.345 883.114 746.679C804.524 748.098 725.609 746.777 654.607 708.849C588.84 673.717 537.285 616.318 487.892 561.746C442.591 511.69 399.767 458.93 349.643 413.531C261.333 333.54 157.54 272.676 50.6194 221.151C47.7132 223.566 46.2877 224.789 43.4799 227.259C126.266 266.901 207 311.771 280.859 366.479C352.266 419.374 410.586 482.787 467.524 550.373C529.875 624.379 602.112 704.13 695.97 737.573C755.734 758.868 818.588 755.52 880.902 753.511C954.38 751.139 1023.87 765.983 1084.96 808.501C1151.93 855.11 1197.42 927.624 1239.19 995.959C1273.44 1052.01 1309.12 1109.93 1357.91 1154.78C1403.94 1197.09 1459.64 1220.44 1518.31 1239.72C1625 1274.79 1732.94 1306.26 1840.37 1338.98C1838.57 1335.9 1837.65 1334.36 1835.81 1331.27C1732.67 1300.19 1629.09 1270.29 1526.47 1237.49C1467.75 1218.72 1412 1196.86 1365.39 1155.31C1314.27 1109.74 1277 1049.94 1241.87 991.904Z" fill="#3DFFFF"/>
<path opacity="0.5" d="M1253.67 966.786C1215.12 898.095 1173.45 826.472 1109.46 778.235C1080.74 756.583 1048.47 740.325 1015.12 727.079C969.765 709.058 922.203 703.325 874.027 697.783C789.232 688.026 705.087 669.102 631.21 624.662C571.483 588.731 522.619 538.619 475.167 488.243C434.868 445.468 396.369 399.86 352.776 360.396C276.288 291.152 184.089 240.948 90.8942 198.086C87.6563 200.255 86.0588 201.361 82.9191 203.61C178.694 247.706 273.197 299.335 352.1 370.141C396.326 409.826 434.991 456.06 475.536 499.432C522.576 549.746 571.053 599.95 630.651 635.506C703.988 679.253 787.566 696.542 871.594 704.997C919.008 709.771 966.232 714.674 1010.91 732.209C1044.56 745.413 1077.13 761.646 1106.13 783.39C1170.07 831.339 1211.87 902.611 1250.57 970.995C1283.1 1028.48 1317.14 1088.08 1365.34 1134.12C1410.79 1177.53 1466.57 1200.6 1525.6 1219.48C1625.59 1251.46 1726.75 1279.87 1827.44 1309.51C1826.03 1306.58 1825.32 1305.11 1823.89 1302.16C1725.29 1273.43 1626.21 1245.9 1528.29 1214.87C1469.39 1196.21 1413.67 1173.52 1368.27 1130.31C1319.93 1084.29 1286.03 1024.44 1253.67 966.786Z" fill="#3DFFFF"/>
</svg>
