<svg width="22" height="23" viewBox="0 0 22 23" fill="none" xmlns="http://www.w3.org/2000/svg">
<path d="M16.0397 8.80781H4.92858V6.60781H16.0397V8.80781ZM16.0397 13.2078H4.92858V11.0078H16.0397V13.2078ZM12.7064 17.6078H4.92858V15.4078H12.7064V17.6078ZM10.4841 2.20781C10.7788 2.20781 11.0614 2.3237 11.2698 2.52999C11.4782 2.73628 11.5952 3.01607 11.5952 3.30781C11.5952 3.59955 11.4782 3.87934 11.2698 4.08563C11.0614 4.29192 10.7788 4.40781 10.4841 4.40781C10.1894 4.40781 9.90683 4.29192 9.69846 4.08563C9.49008 3.87934 9.37302 3.59955 9.37302 3.30781C9.37302 3.01607 9.49008 2.73628 9.69846 2.52999C9.90683 2.3237 10.1894 2.20781 10.4841 2.20781ZM18.2619 2.20781H13.6175C13.1508 0.931813 11.9286 0.0078125 10.4841 0.0078125C9.03969 0.0078125 7.81746 0.931813 7.3508 2.20781H2.70635C2.11698 2.20781 1.55175 2.4396 1.135 2.85218C0.718257 3.26476 0.484131 3.82434 0.484131 4.40781V19.8078C0.484131 20.3913 0.718257 20.9509 1.135 21.3634C1.55175 21.776 2.11698 22.0078 2.70635 22.0078H18.2619C18.8513 22.0078 19.4165 21.776 19.8333 21.3634C20.25 20.9509 20.4841 20.3913 20.4841 19.8078V4.40781C20.4841 3.82434 20.25 3.26476 19.8333 2.85218C19.4165 2.4396 18.8513 2.20781 18.2619 2.20781Z" fill="currentColor"/>
</svg>
