<svg width="26" height="26" viewBox="0 0 26 26" fill="none" xmlns="http://www.w3.org/2000/svg">
<path id="doneIcon" d="M23.4 13C23.4 15.7583 22.3043 18.4035 20.3539 20.3539C18.4035 22.3043 15.7583 23.4 13 23.4C10.2417 23.4 7.59647 22.3043 5.64609 20.3539C3.69571 18.4035 2.6 15.7583 2.6 13C2.6 10.2417 3.69571 7.59647 5.64609 5.64609C7.59647 3.69571 10.2417 2.6 13 2.6C13.988 2.6 14.95 2.743 15.86 3.003L17.901 0.962C16.393 0.338 14.742 0 13 0C11.2928 0 9.60235 0.336255 8.02512 0.989566C6.44788 1.64288 5.01477 2.60045 3.80761 3.80761C1.36964 6.24558 0 9.55219 0 13C0 16.4478 1.36964 19.7544 3.80761 22.1924C5.01477 23.3995 6.44788 24.3571 8.02512 25.0104C9.60235 25.6637 11.2928 26 13 26C16.4478 26 19.7544 24.6304 22.1924 22.1924C24.6304 19.7544 26 16.4478 26 13H23.4ZM7.683 10.504L5.85 12.35L11.7 18.2L24.7 5.2L22.867 3.354L11.7 14.521L7.683 10.504Z" fill="#fff"/>
</svg>
