<svg width="26" height="26" viewBox="0 0 27 26" fill="none" xmlns="http://www.w3.org/2000/svg">
<path d="M24.5153 13C25.8876 13 27.0246 14.1231 26.7544 15.4685C26.365 17.4073 25.5196 19.2464 24.2694 20.8391C22.4976 23.0963 20.0093 24.7353 17.1823 25.5071C14.3553 26.2789 11.3441 26.1414 8.60558 25.1155C5.86711 24.0897 3.55098 22.2315 2.00879 19.8229C0.466608 17.4144 -0.217423 14.5871 0.060538 11.7702C0.338499 8.95337 1.56327 6.30075 3.54894 4.21503C5.5346 2.12932 8.17273 0.724421 11.0628 0.213598C13.1293 -0.151644 15.2439 -0.0455391 17.241 0.5091C18.5513 0.872974 19.0422 2.38169 18.413 3.58719C17.8102 4.74214 16.3963 5.17182 15.1154 4.93395C14.0802 4.74171 13.0102 4.73466 11.96 4.92029C10.1337 5.24308 8.46668 6.13084 7.21194 7.44879C5.9572 8.76675 5.18327 10.4429 5.00763 12.2229C4.83198 14.0029 5.26422 15.7895 6.23873 17.3114C7.21323 18.8333 8.67679 20.0076 10.4072 20.6558C12.1377 21.304 14.0405 21.3909 15.8268 20.9032C17.6132 20.4155 19.1855 19.3799 20.3052 17.9535C20.9024 17.1927 21.3534 16.343 21.6443 15.4442C22.0668 14.1387 23.1431 13 24.5153 13Z" fill="url(#paint0_angular_836_24981)"/>
<defs>
<radialGradient id="paint0_angular_836_24981" cx="0" cy="0" r="1" gradientUnits="userSpaceOnUse" gradientTransform="translate(13.5 13) rotate(4.71485) scale(13.1797 12.97)">
<stop stop-color="#00D7D7"/>
<stop offset="0.811776" stop-color="#00D7D7" stop-opacity="0"/>
</radialGradient>
</defs>
</svg>
